<svg xmlns="http://www.w3.org/2000/svg" width="350" height="257.684" viewBox="0 0 350 257.684">
  <g id="Grupo_660" data-name="Grupo 660" transform="translate(-958.649 -254.585)">
    <g id="Grupo_642" data-name="Grupo 642" transform="translate(958.648 230.175)">
      <g id="Grupo_495" data-name="Grupo 495" transform="translate(0 24.41)">
        <g id="Grupo_487" data-name="Grupo 487" transform="translate(0 18.743)">
          <path id="Trazado_494" data-name="Trazado 494" d="M277.464,197.637H250.182a16.469,16.469,0,0,1-16.867-16.04v-3.618a16.469,16.469,0,0,1,16.867-16.038h58.372A16.472,16.472,0,0,0,325.421,145.9v-3.618a16.474,16.474,0,0,0-16.867-16.042H274.906c-8.952-51.254-55.76-90.337-112.2-90.337A116.839,116.839,0,0,0,92.335,59.175h-46.7A16.468,16.468,0,0,0,28.77,75.215v3.616A16.469,16.469,0,0,0,45.637,94.873H68.829A16.467,16.467,0,0,1,85.7,110.912v3.62A16.471,16.471,0,0,1,68.829,130.57H18.768A17.87,17.87,0,1,0,17,166.266a16.97,16.97,0,0,0,1.768,0H51.345c10.759,49.114,56.526,86.012,111.361,86.012A117.276,117.276,0,0,0,227,233.334h50.461a16.471,16.471,0,0,0,16.87-16.04v-3.618A16.472,16.472,0,0,0,277.464,197.637Z" transform="translate(0 -35.902)" fill="#e8e8e8"/>
          <path id="Rectángulo_95" data-name="Rectángulo 95" d="M207.492,140.21h8.145a15.675,15.675,0,0,1,15.673,15.674h0a15.673,15.673,0,0,1-15.673,15.671h-8.145a15.673,15.673,0,0,1-15.674-15.671h0A15.675,15.675,0,0,1,207.492,140.21Z" transform="translate(118.69 28.188)" fill="#e8e8e8"/>
        </g>
        <path id="Elipse_28" data-name="Elipse 28" d="M168.759,117.318a4.905,4.905,0,1,1-4.906,4.906A4.907,4.907,0,0,1,168.759,117.318Z" transform="translate(101.56 33.166)" fill="#b6cddd"/>
        <path id="Trazado_629" data-name="Trazado 629" d="M51.071,43.056a9.323,9.323,0,1,1,9.323-9.323A9.334,9.334,0,0,1,51.071,43.056Zm0-12.122a2.8,2.8,0,1,0,2.8,2.8A2.8,2.8,0,0,0,51.071,30.934Z" transform="translate(25.864 -24.41)" fill="#b6cddd"/>
        <path id="Trazado_497" data-name="Trazado 497" d="M165.6,172.558c0-1.114-2.055-2.052-4.918-2.4-.344-2.861-1.287-4.919-2.4-4.919s-2.049,2.058-2.4,4.919c-2.861.344-4.918,1.284-4.918,2.4s2.057,2.049,4.918,2.393c.344,2.864,1.287,4.921,2.4,4.921s2.052-2.057,2.4-4.921C163.544,174.607,165.6,173.667,165.6,172.558Z" transform="translate(93.555 62.728)" fill="#b6cddd"/>
        <path id="Trazado_498" data-name="Trazado 498" d="M50.65,176.27c-.882-.881-3.262,0-5.8,2-2.544-2-4.922-2.885-5.8-2s0,3.262,2.006,5.8c-2,2.544-2.885,4.922-2.006,5.8s3.262,0,5.8-2c2.541,2,4.921,2.882,5.8,2s0-3.262-2-5.8C50.643,179.527,51.529,177.149,50.65,176.27Z" transform="translate(23.986 69.471)" fill="#b6cddd"/>
        <path id="Trazado_499" data-name="Trazado 499" d="M143.482,53.709c-.816-.816-3.039,0-5.412,1.871-2.375-1.864-4.591-2.691-5.413-1.871s0,3.04,1.867,5.413c-1.861,2.373-2.686,4.59-1.867,5.412s3.039,0,5.413-1.868c2.373,1.861,4.593,2.686,5.412,1.868s0-3.042-1.871-5.412C143.475,56.75,144.3,54.53,143.482,53.709Z" transform="translate(82.019 -6.451)" fill="#b6cddd"/>
      </g>
      <path id="Trazado_630" data-name="Trazado 630" d="M144.345,278.088c-.028,0-.057,0-.083,0-2.738-.136-5.506-.365-8.229-.676a1.619,1.619,0,1,1,.374-3.217c2.65.3,5.348.523,8.018.656a1.62,1.62,0,0,1-.08,3.238Zm13.035-.011a1.62,1.62,0,0,1-.078-3.238c2.659-.133,5.355-.358,8.015-.664a1.62,1.62,0,1,1,.375,3.217c-2.727.316-5.495.546-8.225.684C157.439,278.076,157.41,278.076,157.38,278.076Zm-34.015-2.8a1.7,1.7,0,0,1-.357-.039c-2.675-.59-5.364-1.275-8-2.036a1.62,1.62,0,1,1,.91-3.11c2.566.742,5.187,1.409,7.793,1.983a1.62,1.62,0,0,1-.351,3.2Zm54.993-.037a1.618,1.618,0,0,1-.354-3.2c2.6-.578,5.224-1.249,7.788-1.994a1.621,1.621,0,1,1,.915,3.11c-2.631.765-5.32,1.452-7.994,2.044A1.683,1.683,0,0,1,178.359,275.243Zm-75.207-6.235a1.633,1.633,0,0,1-.618-.12c-2.541-1.029-5.081-2.158-7.548-3.348a1.615,1.615,0,0,1-.752-2.166,1.641,1.641,0,0,1,2.182-.748c2.4,1.161,4.874,2.26,7.351,3.264a1.614,1.614,0,0,1,.9,2.111A1.631,1.631,0,0,1,103.152,269.008Zm95.405-.06a1.619,1.619,0,0,1-.617-3.118c2.471-1.006,4.94-2.1,7.333-3.263a1.634,1.634,0,0,1,2.182.745,1.615,1.615,0,0,1-.752,2.166c-2.456,1.191-4.989,2.317-7.529,3.35A1.62,1.62,0,0,1,198.557,268.948Zm-114.276-9.5a1.647,1.647,0,0,1-.86-.243c-2.339-1.445-4.65-2.978-6.873-4.557a1.614,1.614,0,0,1-.378-2.26,1.642,1.642,0,0,1,2.277-.376c2.164,1.541,4.418,3.033,6.7,4.44a1.615,1.615,0,0,1,.527,2.231A1.642,1.642,0,0,1,84.281,259.443Zm133.116-.073a1.63,1.63,0,0,1-1.385-.763,1.611,1.611,0,0,1,.522-2.231c2.256-1.4,4.5-2.89,6.681-4.44a1.638,1.638,0,0,1,2.277.373,1.611,1.611,0,0,1-.375,2.26c-2.233,1.592-4.542,3.125-6.858,4.557A1.639,1.639,0,0,1,217.4,259.371ZM67.3,246.879a1.634,1.634,0,0,1-1.08-.407c-2.05-1.8-4.071-3.69-6.01-5.625a1.613,1.613,0,0,1,.007-2.291,1.637,1.637,0,0,1,2.306.006c1.889,1.886,3.861,3.729,5.857,5.482a1.611,1.611,0,0,1,.142,2.286A1.628,1.628,0,0,1,67.3,246.879Zm167.063-.081a1.635,1.635,0,0,1-1.22-.546,1.61,1.61,0,0,1,.14-2.287c2-1.758,3.968-3.6,5.849-5.487a1.639,1.639,0,0,1,2.306-.01,1.612,1.612,0,0,1,.008,2.291c-1.929,1.933-3.949,3.828-6,5.633A1.645,1.645,0,0,1,234.358,246.8Zm-181.7-15.111a1.634,1.634,0,0,1-1.271-.6c-1.734-2.129-3.41-4.329-4.981-6.538a1.61,1.61,0,0,1,.391-2.257,1.635,1.635,0,0,1,2.272.387c1.532,2.153,3.164,4.3,4.854,6.37a1.612,1.612,0,0,1-.243,2.279A1.631,1.631,0,0,1,52.656,231.687Zm196.326-.1a1.622,1.622,0,0,1-1.267-2.637c1.675-2.057,3.306-4.2,4.852-6.381a1.64,1.64,0,0,1,2.274-.39,1.615,1.615,0,0,1,.393,2.258c-1.587,2.236-3.262,4.437-4.98,6.548A1.631,1.631,0,0,1,248.982,231.591Zm-208.215-17.3a1.634,1.634,0,0,1-1.424-.826c-1.341-2.368-2.621-4.813-3.807-7.267a1.629,1.629,0,0,1,2.941-1.4c1.155,2.389,2.4,4.772,3.712,7.081a1.617,1.617,0,0,1-.623,2.206A1.643,1.643,0,0,1,40.767,214.289Zm220.092-.115a1.632,1.632,0,0,1-.8-.207,1.611,1.611,0,0,1-.623-2.2c1.3-2.315,2.554-4.7,3.707-7.1a1.637,1.637,0,0,1,2.176-.763,1.617,1.617,0,0,1,.768,2.161c-1.186,2.461-2.466,4.912-3.807,7.287A1.635,1.635,0,0,1,260.859,214.174ZM31.982,195.163a1.63,1.63,0,0,1-1.536-1.074c-.917-2.547-1.768-5.174-2.526-7.807a1.618,1.618,0,0,1,1.119-2,1.636,1.636,0,0,1,2.016,1.11c.74,2.566,1.569,5.126,2.463,7.609a1.615,1.615,0,0,1-.985,2.07A1.634,1.634,0,0,1,31.982,195.163Zm237.647-.143a1.659,1.659,0,0,1-.548-.094,1.619,1.619,0,0,1-.988-2.07c.9-2.495,1.721-5.054,2.45-7.611a1.632,1.632,0,0,1,3.141.886c-.752,2.623-1.6,5.25-2.517,7.813A1.632,1.632,0,0,1,269.629,195.021ZM26.561,174.836a1.631,1.631,0,0,1-1.6-1.34c-.475-2.688-.868-5.419-1.166-8.116a1.631,1.631,0,0,1,3.242-.355c.29,2.629.674,5.291,1.138,7.91a1.623,1.623,0,0,1-1.326,1.876A1.678,1.678,0,0,1,26.561,174.836Zm248.467-.151a1.724,1.724,0,0,1-.284-.024,1.619,1.619,0,0,1-1.324-1.874c.458-2.628.838-5.289,1.124-7.91a1.631,1.631,0,0,1,3.244.348c-.294,2.691-.682,5.422-1.153,8.119A1.633,1.633,0,0,1,275.028,174.685ZM24.653,153.9a1.627,1.627,0,0,1-1.631-1.612l0-.931c0-2.419.07-4.86.206-7.262a1.631,1.631,0,0,1,3.257.183c-.134,2.342-.2,4.722-.2,7.079l0,.915a1.625,1.625,0,0,1-1.623,1.628Zm252.259-.152h-.01a1.624,1.624,0,0,1-1.621-1.63v-.761c0-2.4-.07-4.832-.207-7.232a1.618,1.618,0,0,1,1.532-1.711,1.642,1.642,0,0,1,1.724,1.523c.144,2.462.214,4.959.214,7.419v.781A1.627,1.627,0,0,1,276.912,153.744ZM26.258,132.929A1.552,1.552,0,0,1,26,132.91a1.621,1.621,0,0,1-1.352-1.856c.434-2.689.964-5.4,1.574-8.05a1.631,1.631,0,0,1,3.18.721c-.6,2.585-1.111,5.223-1.535,7.842A1.627,1.627,0,0,1,26.258,132.929Zm249.02-.154a1.628,1.628,0,0,1-1.61-1.362c-.424-2.611-.943-5.249-1.541-7.839a1.63,1.63,0,0,1,3.179-.724c.615,2.657,1.147,5.365,1.584,8.048a1.631,1.631,0,0,1-1.611,1.878ZM31.371,112.524a1.627,1.627,0,0,1-1.545-2.142c.891-2.6,1.874-5.182,2.924-7.688a1.64,1.64,0,0,1,2.133-.872,1.615,1.615,0,0,1,.877,2.119c-1.023,2.44-1.98,4.957-2.848,7.484A1.631,1.631,0,0,1,31.371,112.524Zm238.771-.147a1.632,1.632,0,0,1-1.545-1.1c-.866-2.511-1.822-5.019-2.845-7.458a1.614,1.614,0,0,1,.876-2.119,1.635,1.635,0,0,1,2.133.872c1.049,2.5,2.034,5.08,2.924,7.656a1.618,1.618,0,0,1-1.016,2.057A1.665,1.665,0,0,1,270.141,112.376ZM39.877,93.25a1.636,1.636,0,0,1-.778-.2,1.614,1.614,0,0,1-.654-2.2c1.311-2.4,2.717-4.779,4.179-7.081a1.636,1.636,0,0,1,2.249-.507,1.612,1.612,0,0,1,.509,2.234c-1.424,2.244-2.792,4.565-4.071,6.9A1.629,1.629,0,0,1,39.877,93.25Zm221.749-.107a1.628,1.628,0,0,1-1.432-.846c-1.276-2.323-2.646-4.64-4.076-6.885a1.615,1.615,0,0,1,.511-2.234,1.639,1.639,0,0,1,2.249.5c1.465,2.305,2.871,4.682,4.179,7.065a1.624,1.624,0,0,1-1.43,2.4ZM51.516,75.673a1.634,1.634,0,0,1-1.006-.347,1.611,1.611,0,0,1-.274-2.274c1.69-2.137,3.474-4.251,5.306-6.284a1.634,1.634,0,0,1,2.3-.128,1.61,1.61,0,0,1,.129,2.286c-1.784,1.983-3.525,4.045-5.172,6.128A1.63,1.63,0,0,1,51.516,75.673ZM249.98,75.59a1.63,1.63,0,0,1-1.284-.619c-1.651-2.083-3.389-4.141-5.174-6.119a1.611,1.611,0,0,1,.127-2.287,1.639,1.639,0,0,1,2.3.126c1.828,2.028,3.613,4.139,5.307,6.277a1.615,1.615,0,0,1-.274,2.274A1.637,1.637,0,0,1,249.98,75.59ZM65.94,60.272a1.635,1.635,0,0,1-1.207-.53,1.615,1.615,0,0,1,.109-2.289c2.022-1.827,4.136-3.617,6.283-5.318a1.638,1.638,0,0,1,2.292.256,1.612,1.612,0,0,1-.256,2.276c-2.091,1.657-4.151,3.4-6.123,5.184A1.636,1.636,0,0,1,65.94,60.272ZM235.546,60.2a1.632,1.632,0,0,1-1.1-.421c-1.983-1.788-4.045-3.532-6.128-5.181a1.614,1.614,0,0,1-.263-2.276,1.642,1.642,0,0,1,2.295-.259c2.137,1.693,4.252,3.483,6.288,5.318a1.62,1.62,0,0,1-1.1,2.819ZM82.738,47.472a1.637,1.637,0,0,1-1.375-.745,1.614,1.614,0,0,1,.493-2.239c2.316-1.476,4.7-2.89,7.082-4.2a1.635,1.635,0,0,1,2.218.633,1.611,1.611,0,0,1-.638,2.2c-2.323,1.277-4.644,2.655-6.9,4.094A1.625,1.625,0,0,1,82.738,47.472Zm135.995-.06a1.631,1.631,0,0,1-.879-.254c-2.262-1.437-4.588-2.816-6.917-4.1a1.612,1.612,0,0,1-.636-2.2,1.636,1.636,0,0,1,2.217-.633c2.386,1.312,4.776,2.725,7.095,4.2a1.619,1.619,0,0,1-.879,2.984Zm-117.29-9.77a1.619,1.619,0,0,1-.638-3.11c2.51-1.061,5.094-2.056,7.687-2.96a1.621,1.621,0,1,1,1.08,3.057c-2.526.881-5.046,1.85-7.49,2.884A1.634,1.634,0,0,1,101.443,37.643ZM200,37.594a1.628,1.628,0,0,1-.636-.128c-2.46-1.038-4.989-2.007-7.519-2.884a1.622,1.622,0,1,1,1.076-3.06c2.6.9,5.19,1.9,7.716,2.96a1.617,1.617,0,0,1,.866,2.125A1.637,1.637,0,0,1,200,37.594ZM121.54,31.08a1.618,1.618,0,0,1-.373-3.195c2.657-.627,5.377-1.178,8.088-1.635a1.645,1.645,0,0,1,1.884,1.327,1.627,1.627,0,0,1-1.339,1.869c-2.637.444-5.291.978-7.881,1.589A1.607,1.607,0,0,1,121.54,31.08Zm58.325-.036a1.767,1.767,0,0,1-.377-.042c-2.587-.607-5.237-1.14-7.884-1.583a1.62,1.62,0,0,1-1.337-1.866,1.638,1.638,0,0,1,1.879-1.33c2.717.457,5.438,1,8.092,1.623a1.62,1.62,0,0,1-.372,3.2Zm-37.386-3.081a1.62,1.62,0,0,1-.1-3.237c2.73-.177,5.508-.267,8.251-.271h0c.054,0,.1,0,.153,0,2.732,0,5.506.086,8.246.259a1.625,1.625,0,0,1,1.527,1.719,1.655,1.655,0,0,1-1.734,1.515c-2.67-.168-5.377-.253-8.039-.253l-.15,0c-2.676,0-5.381.091-8.044.264C142.553,27.962,142.514,27.963,142.479,27.963Z" transform="translate(14.526 0.029)" fill="#cceaf3"/>
      <g id="Grupo_500" data-name="Grupo 500" transform="translate(49.185 83.163)">
        <g id="Grupo_499" data-name="Grupo 499" transform="translate(0 0)">
          <g id="Grupo_496" data-name="Grupo 496" transform="translate(0 136.703)">
            <g id="Grupo_636" data-name="Grupo 636" transform="translate(0 0.005)">
              <path id="Trazado_504" data-name="Trazado 504" d="M243.913,159.651l-199.091.163a13.724,13.724,0,0,1-13.665-13.785h0l226.4-.178h0A13.724,13.724,0,0,1,243.913,159.651Z" transform="translate(-29.524 -144.218)" fill="#1786e2"/>
              <path id="Trazado_631" data-name="Trazado 631" d="M45.44,162.077h-.013a15.369,15.369,0,0,1-15.27-15.415l0-1.631,229.662-.181v1.633a15.368,15.368,0,0,1-15.255,15.431ZM33.5,148.29a12.1,12.1,0,0,0,11.931,10.525v1.631l.01-1.631,199.122-.163a12.1,12.1,0,0,0,11.923-10.536Z" transform="translate(-30.156 -144.85)" fill="#005296"/>
            </g>
            <g id="Grupo_637" data-name="Grupo 637" transform="translate(0.002 0)">
              <path id="Trazado_505" data-name="Trazado 505" d="M243.909,154.9l-199.091.161a13.645,13.645,0,0,1-12.811-9.034h-.849a13.725,13.725,0,0,0,13.665,13.785l199.093-.165a13.727,13.727,0,0,0,13.642-13.8h-.848A13.657,13.657,0,0,1,243.909,154.9Z" transform="translate(-29.525 -144.216)" fill="#4084fb"/>
              <path id="Trazado_632" data-name="Trazado 632" d="M45.441,162.079h-.013a15.369,15.369,0,0,1-15.27-15.415l0-1.633h3.592l.387,1.07a12.079,12.079,0,0,0,11.3,7.964l199.124-.161a12.084,12.084,0,0,0,11.285-7.986l.389-1.072h3.587l0,1.629a15.369,15.369,0,0,1-15.259,15.438Zm-9.81-8.364a12,12,0,0,0,9.8,5.1v1.631l.01-1.631,199.12-.165a11.991,11.991,0,0,0,9.8-5.118,15.174,15.174,0,0,1-9.8,3.632l-199.122.161A15.19,15.19,0,0,1,35.632,153.715Z" transform="translate(-30.157 -144.847)" fill="#005296"/>
            </g>
            <g id="Grupo_638" data-name="Grupo 638" transform="translate(95.583 0.073)">
              <path id="Trazado_506" data-name="Trazado 506" d="M121.1,150.515l-25.992.021a4.62,4.62,0,0,1-4.622-4.613h0l35.23-.031h0a4.618,4.618,0,0,1-4.616,4.622Z" transform="translate(-88.848 -144.26)" fill="#0042b6"/>
              <path id="Trazado_633" data-name="Trazado 633" d="M95.737,152.8h0a6.258,6.258,0,0,1-6.252-6.242l0-1.631,38.5-.034v1.631a6.257,6.257,0,0,1-6.244,6.255Zm-2.5-4.614a2.991,2.991,0,0,0,2.5,1.352l25.99-.021a2.968,2.968,0,0,0,2.115-.877,3.236,3.236,0,0,0,.391-.481Z" transform="translate(-89.48 -144.892)" fill="#005296"/>
            </g>
          </g>
          <g id="Grupo_639" data-name="Grupo 639" transform="translate(11.676)">
            <path id="Trazado_507" data-name="Trazado 507" d="M241.267,198.745l-202.855.163-.1-123.862A12.794,12.794,0,0,1,51.022,62.173h0l177.417-.14A12.792,12.792,0,0,1,241.18,74.884v0Z" transform="translate(-36.684 -60.402)" fill="#1786e2"/>
            <path id="Trazado_634" data-name="Trazado 634" d="M37.413,201.172l-.1-125.493a14.434,14.434,0,0,1,14.32-14.506l177.45-.14a14.443,14.443,0,0,1,14.357,14.48l.087,125.493ZM229.1,64.3l-177.463.14a11.187,11.187,0,0,0-11.1,11.241l.1,122.231,199.665-.16L240.217,75.52A11.193,11.193,0,0,0,229.1,64.3Z" transform="translate(-37.315 -61.033)" fill="#005296"/>
          </g>
          <rect id="Rectángulo_126" data-name="Rectángulo 126" width="181.484" height="115.325" transform="translate(24.037 12.398)" fill="#fff"/>
          <rect id="Rectángulo_127" data-name="Rectángulo 127" width="181.485" height="11.025" transform="translate(24.079 116.697)" fill="#d3d4dd" opacity="0.16" style="isolation: isolate"/>
          <rect id="Rectángulo_128" data-name="Rectángulo 128" width="181.484" height="5.473" transform="translate(23.996 12.398)" fill="#d3d4dd" opacity="0.16" style="isolation: isolate"/>
          <g id="Grupo_640" data-name="Grupo 640" transform="translate(22.106 10.236)">
            <path id="Rectángulo_76-2" data-name="Rectángulo 76-2" d="M46.645,68.309H224.522a2.036,2.036,0,0,1,1.934,2.12V182.037a2.033,2.033,0,0,1-1.934,2.117H46.644a2.033,2.033,0,0,1-1.932-2.117V70.436A2.037,2.037,0,0,1,46.645,68.309Z" transform="translate(-43.078 -66.678)" fill="#eef7fd"/>
            <path id="Trazado_635" data-name="Trazado 635" d="M225.2,186.416H47.255a3.674,3.674,0,0,1-3.542-3.81l0-111.539a3.653,3.653,0,0,1,3.477-3.756l177.984,0a3.673,3.673,0,0,1,3.542,3.813l0,111.546a3.641,3.641,0,0,1-3.482,3.746Zm-.1-115.847-177.85,0a.415.415,0,0,0-.325.432l0,111.665a.43.43,0,0,0,.391.488l177.8,0a.411.411,0,0,0,.369-.424l0-111.67A.431.431,0,0,0,225.107,70.569Z" transform="translate(-43.709 -67.309)" fill="#005296"/>
          </g>
        </g>
        <path id="Trazado_511" data-name="Trazado 511" d="M213.539,154.408" transform="translate(83.212 -2.111)" fill="none" stroke="#243853" stroke-width="0.876"/>
      </g>
      <circle id="Elipse_30" data-name="Elipse 30" cx="36" cy="36" r="36" transform="translate(128.352 119.825)" fill="#fff"/>
      <g id="Grupo_641" data-name="Grupo 641" transform="translate(124.578 105.9)">
        <path id="Trazado_636" data-name="Trazado 636" d="M129.7,115.228a.92.92,0,0,1-.9-.783,30.133,30.133,0,0,0-24.927-24.214.92.92,0,1,1,.054-1.84.9.9,0,0,1,.176.021,32,32,0,0,1,26.516,25.664.922.922,0,0,1-.758,1.06h0Z" transform="translate(-60.673 -68.388)" fill="#005296"/>
        <path id="Trazado_637" data-name="Trazado 637" d="M122.211,110.93a.664.664,0,0,1-.644-.528,20.39,20.39,0,0,0-16.987-16.411.644.644,0,0,1-.553-.724l0-.011a.666.666,0,0,1,.737-.53,21.684,21.684,0,0,1,18.09,17.445.647.647,0,0,1-.528.739Z" transform="translate(-60.019 -65.657)" fill="#005296"/>
        <path id="Trazado_638" data-name="Trazado 638" d="M105.924,113.732,104.5,91.382h-4.144l-1.381,29.553,30.29-1.564v-4.12Z" transform="translate(-63.204 -66.5)" fill="#005296"/>
        <path id="Trazado_639" data-name="Trazado 639" d="M141.927,96.865l2.3-2.3,2.923,2.921,1.657-1.655a2.3,2.3,0,0,0,.06-3.256l-.06-.059-4.971-5.063a2.3,2.3,0,0,0-3.256-.06c-.02.018-.039.039-.06.06l-1.634,1.655,2.923,2.9-2.693,2.668a39.121,39.121,0,0,0-20.277-7.157V82.687H124.6V79.4a3.269,3.269,0,0,0-3.269-3.269h-9.851a3.27,3.27,0,0,0-3.269,3.269h0v3.291h5.756v4.834a39.127,39.127,0,0,0-20.279,7.157l-2.67-2.668,2.923-2.9L92.28,87.453a2.3,2.3,0,0,0-3.254-.06.7.7,0,0,0-.06.06l-5.019,4.993a2.3,2.3,0,0,0-.059,3.256c.02.02.039.041.059.062L85.6,97.418l2.923-2.924,2.3,2.3a39.312,39.312,0,1,0,51.051,0ZM116.4,160.276a33.558,33.558,0,1,1,33.558-33.558A33.559,33.559,0,0,1,116.4,160.276Z" transform="translate(-77.042 -76.127)" fill="#005296"/>
      </g>
    </g>
  </g>
</svg>
