<svg xmlns="http://www.w3.org/2000/svg" width="350" height="258.344" viewBox="0 0 350 258.344">
  <g id="Grupo_635" data-name="Grupo 635" transform="translate(0 -24.41)">
    <g id="Grupo_495" data-name="Grupo 495" transform="translate(0 24.41)">
      <g id="Grupo_487" data-name="Grupo 487" transform="translate(0 18.666)">
        <path id="Trazado_494" data-name="Trazado 494" d="M277.551,198.258H250.26a16.5,16.5,0,0,1-16.872-16.1v-3.632a16.5,16.5,0,0,1,16.872-16.1h58.39a16.5,16.5,0,0,0,16.872-16.1v-3.632a16.505,16.505,0,0,0-16.872-16.1H274.992C266.037,75.135,219.214,35.9,162.757,35.9A116.6,116.6,0,0,0,92.364,59.264H45.651a16.5,16.5,0,0,0-16.872,16.1V79A16.5,16.5,0,0,0,45.651,95.1h23.2a16.5,16.5,0,0,1,16.872,16.1v3.634a16.5,16.5,0,0,1-16.872,16.1H18.774A17.939,17.939,0,0,0,17,166.766a16.913,16.913,0,0,0,1.769,0H51.361c10.762,49.3,56.543,86.342,111.4,86.342a117.013,117.013,0,0,0,64.31-19.017h50.477a16.5,16.5,0,0,0,16.875-16.1v-3.632A16.5,16.5,0,0,0,277.551,198.258Z" transform="translate(0 -35.902)" fill="#e8e8e8"/>
        <path id="Rectángulo_95" data-name="Rectángulo 95" d="M207.427,140.21h8.112a15.61,15.61,0,0,1,15.608,15.609h0a15.608,15.608,0,0,1-15.608,15.606h-8.112a15.609,15.609,0,0,1-15.609-15.606h0A15.61,15.61,0,0,1,207.427,140.21Z" transform="translate(118.853 29.217)" fill="#e8e8e8"/>
      </g>
      <path id="Elipse_28" data-name="Elipse 28" d="M168.739,117.318a4.885,4.885,0,1,1-4.886,4.886A4.887,4.887,0,0,1,168.739,117.318Z" transform="translate(101.592 33.591)" fill="#b6cddd"/>
      <path id="Trazado_618" data-name="Trazado 618" d="M51.032,42.979a9.284,9.284,0,1,1,9.284-9.284A9.3,9.3,0,0,1,51.032,42.979Zm0-12.072a2.787,2.787,0,1,0,2.787,2.787A2.791,2.791,0,0,0,51.032,30.907Z" transform="translate(25.88 -24.41)" fill="#b6cddd"/>
      <path id="Trazado_497" data-name="Trazado 497" d="M165.544,172.528c0-1.109-2.047-2.043-4.9-2.386-.343-2.849-1.282-4.9-2.386-4.9s-2.04,2.05-2.386,4.9c-2.849.343-4.9,1.278-4.9,2.386s2.048,2.04,4.9,2.383c.343,2.852,1.282,4.9,2.386,4.9s2.043-2.048,2.386-4.9C163.492,174.568,165.544,173.632,165.544,172.528Z" transform="translate(93.599 63.51)" fill="#b6cddd"/>
      <path id="Trazado_498" data-name="Trazado 498" d="M50.6,176.269c-.879-.877-3.249,0-5.778,2-2.534-1.991-4.9-2.873-5.779-2s0,3.249,2,5.778c-1.991,2.534-2.873,4.9-2,5.778s3.249,0,5.779-1.993c2.531,1.988,4.9,2.87,5.778,1.993s0-3.249-1.995-5.778C50.594,179.512,51.476,177.144,50.6,176.269Z" transform="translate(23.996 70.182)" fill="#b6cddd"/>
      <path id="Trazado_499" data-name="Trazado 499" d="M143.436,53.708c-.812-.812-3.026,0-5.389,1.863-2.365-1.857-4.572-2.68-5.391-1.863s0,3.028,1.86,5.391c-1.853,2.363-2.675,4.571-1.86,5.389s3.026,0,5.391-1.86c2.363,1.853,4.574,2.675,5.389,1.86s0-3.029-1.863-5.389C143.429,56.736,144.254,54.525,143.436,53.708Z" transform="translate(82.049 -6.316)" fill="#b6cddd"/>
    </g>
    <path id="Trazado_619" data-name="Trazado 619" d="M143.844,278.764c-.028,0-.057,0-.083,0-2.727-.136-5.484-.365-8.195-.677a1.624,1.624,0,0,1,.372-3.226c2.639.3,5.326.525,7.985.658a1.624,1.624,0,0,1-.08,3.247Zm12.981-.011a1.624,1.624,0,0,1-.078-3.247c2.648-.133,5.333-.359,7.982-.666a1.624,1.624,0,0,1,.374,3.226c-2.716.317-5.472.547-8.191.685C156.884,278.753,156.855,278.753,156.826,278.753Zm-33.875-2.8a1.679,1.679,0,0,1-.356-.039c-2.664-.591-5.342-1.278-7.962-2.042a1.624,1.624,0,1,1,.906-3.119c2.555.744,5.165,1.413,7.761,1.988a1.625,1.625,0,0,1-.349,3.211Zm54.766-.037a1.623,1.623,0,0,1-.352-3.208c2.592-.58,5.2-1.252,7.756-2a1.625,1.625,0,1,1,.911,3.119c-2.62.767-5.3,1.455-7.961,2.05A1.668,1.668,0,0,1,177.717,275.912Zm-74.9-6.252a1.616,1.616,0,0,1-.616-.12c-2.531-1.031-5.06-2.164-7.517-3.357a1.625,1.625,0,0,1,1.424-2.922c2.391,1.165,4.853,2.266,7.321,3.273a1.623,1.623,0,0,1-.612,3.127Zm95.011-.06a1.624,1.624,0,0,1-.614-3.127c2.461-1.009,4.92-2.108,7.3-3.271a1.624,1.624,0,1,1,1.425,2.919c-2.446,1.194-4.969,2.323-7.5,3.359A1.6,1.6,0,0,1,197.832,269.6Zm-113.8-9.53a1.632,1.632,0,0,1-.856-.244c-2.329-1.449-4.631-2.985-6.845-4.569a1.625,1.625,0,1,1,1.891-2.643c2.155,1.545,4.4,3.041,6.669,4.452a1.623,1.623,0,0,1-.859,3ZM216.595,260a1.623,1.623,0,0,1-.859-3c2.246-1.4,4.486-2.9,6.653-4.452a1.624,1.624,0,1,1,1.894,2.639c-2.224,1.6-4.524,3.133-6.83,4.569A1.624,1.624,0,0,1,216.595,260ZM67.113,247.472a1.62,1.62,0,0,1-1.075-.408c-2.042-1.8-4.054-3.7-5.986-5.64a1.624,1.624,0,0,1,2.3-2.29c1.881,1.891,3.845,3.739,5.833,5.5a1.624,1.624,0,0,1-1.075,2.841Zm166.373-.081a1.624,1.624,0,0,1-1.075-2.841c1.991-1.762,3.952-3.614,5.825-5.5a1.623,1.623,0,1,1,2.3,2.287c-1.922,1.938-3.932,3.838-5.976,5.648A1.632,1.632,0,0,1,233.486,247.391ZM52.533,232.24a1.623,1.623,0,0,1-1.265-.6c-1.727-2.134-3.4-4.34-4.961-6.556a1.624,1.624,0,0,1,2.652-1.874c1.525,2.159,3.151,4.308,4.834,6.387a1.624,1.624,0,0,1-1.26,2.646Zm195.516-.1a1.607,1.607,0,0,1-1.017-.361,1.628,1.628,0,0,1-.245-2.284c1.668-2.063,3.292-4.215,4.832-6.4a1.625,1.625,0,0,1,2.656,1.873c-1.58,2.242-3.249,4.449-4.959,6.565A1.62,1.62,0,0,1,248.049,232.144ZM40.694,214.795a1.625,1.625,0,0,1-1.418-.828c-1.335-2.375-2.61-4.826-3.791-7.287a1.624,1.624,0,0,1,2.929-1.405c1.15,2.4,2.394,4.785,3.7,7.1a1.624,1.624,0,0,1-1.416,2.42Zm219.183-.115a1.623,1.623,0,0,1-1.415-2.419c1.3-2.321,2.544-4.717,3.692-7.119a1.625,1.625,0,1,1,2.932,1.4c-1.181,2.467-2.456,4.925-3.791,7.306A1.627,1.627,0,0,1,259.877,214.68ZM31.945,195.619a1.624,1.624,0,0,1-1.53-1.077c-.913-2.553-1.761-5.188-2.516-7.827a1.624,1.624,0,0,1,3.122-.895c.737,2.573,1.563,5.139,2.453,7.629a1.621,1.621,0,0,1-1.528,2.17Zm236.665-.143a1.624,1.624,0,0,1-1.53-2.17c.892-2.5,1.714-5.068,2.44-7.631a1.626,1.626,0,0,1,3.128.888c-.749,2.63-1.589,5.264-2.506,7.834A1.625,1.625,0,0,1,268.611,195.476ZM26.546,175.237a1.627,1.627,0,0,1-1.6-1.343c-.473-2.695-.864-5.433-1.161-8.138a1.624,1.624,0,1,1,3.229-.356c.289,2.636.671,5.3,1.134,7.931a1.627,1.627,0,0,1-1.321,1.881A1.66,1.66,0,0,1,26.546,175.237Zm247.441-.151a1.705,1.705,0,0,1-.283-.024,1.622,1.622,0,0,1-1.319-1.879c.456-2.635.835-5.3,1.119-7.931a1.625,1.625,0,1,1,3.231.349c-.292,2.7-.679,5.436-1.148,8.141A1.629,1.629,0,0,1,273.987,175.086ZM24.646,154.242a1.625,1.625,0,0,1-1.624-1.616l0-.934c0-2.425.07-4.873.2-7.282a1.624,1.624,0,0,1,3.244.184c-.133,2.349-.2,4.735-.2,7.1l0,.918a1.624,1.624,0,0,1-1.616,1.632Zm251.217-.153h-.01a1.623,1.623,0,0,1-1.615-1.634v-.763c0-2.406-.07-4.845-.206-7.251a1.619,1.619,0,0,1,1.525-1.715,1.639,1.639,0,0,1,1.717,1.527c.143,2.469.213,4.972.213,7.439v.783A1.626,1.626,0,0,1,275.863,154.089ZM26.244,133.218a1.535,1.535,0,0,1-.258-.02,1.624,1.624,0,0,1-1.347-1.861c.432-2.7.96-5.412,1.567-8.071a1.624,1.624,0,0,1,3.167.723c-.593,2.592-1.106,5.237-1.528,7.863A1.624,1.624,0,0,1,26.244,133.218Zm247.991-.154a1.624,1.624,0,0,1-1.6-1.366c-.422-2.618-.939-5.263-1.535-7.86a1.624,1.624,0,1,1,3.166-.726c.612,2.664,1.142,5.38,1.577,8.069a1.624,1.624,0,0,1-1.345,1.861A1.6,1.6,0,0,1,274.236,133.064Zm-242.9-20.305a1.6,1.6,0,0,1-.525-.088,1.623,1.623,0,0,1-1.014-2.06c.887-2.6,1.866-5.2,2.912-7.709a1.624,1.624,0,1,1,3,1.251c-1.018,2.446-1.972,4.97-2.836,7.5A1.625,1.625,0,0,1,31.336,112.759Zm237.784-.148a1.626,1.626,0,0,1-1.538-1.1c-.862-2.518-1.814-5.032-2.833-7.478a1.624,1.624,0,1,1,3-1.251c1.044,2.511,2.026,5.094,2.912,7.676a1.625,1.625,0,0,1-1.012,2.063A1.648,1.648,0,0,1,269.121,112.611ZM39.807,93.433a1.623,1.623,0,0,1-1.426-2.4c1.306-2.4,2.706-4.792,4.161-7.1a1.623,1.623,0,1,1,2.747,1.731c-1.418,2.25-2.781,4.577-4.054,6.919A1.621,1.621,0,0,1,39.807,93.433Zm220.833-.107a1.62,1.62,0,0,1-1.426-.848c-1.27-2.329-2.635-4.652-4.059-6.9A1.625,1.625,0,0,1,257.9,83.84c1.459,2.311,2.859,4.694,4.161,7.084a1.625,1.625,0,0,1-1.424,2.4ZM51.4,75.809a1.624,1.624,0,0,1-1.275-2.628c1.683-2.142,3.46-4.262,5.284-6.3a1.623,1.623,0,0,1,2.42,2.164c-1.777,1.988-3.51,4.056-5.151,6.145A1.619,1.619,0,0,1,51.4,75.809Zm197.645-.083a1.619,1.619,0,0,1-1.278-.62c-1.644-2.089-3.375-4.152-5.152-6.135a1.624,1.624,0,0,1,2.42-2.167c1.821,2.034,3.6,4.15,5.285,6.294a1.624,1.624,0,0,1-1.275,2.628ZM65.763,60.367a1.624,1.624,0,0,1-1.093-2.826c2.014-1.832,4.119-3.627,6.257-5.333a1.624,1.624,0,0,1,2.027,2.539c-2.082,1.662-4.134,3.413-6.1,5.2A1.623,1.623,0,0,1,65.763,60.367Zm168.9-.068a1.619,1.619,0,0,1-1.092-.422c-1.975-1.793-4.028-3.541-6.1-5.194A1.625,1.625,0,1,1,229.5,52.14c2.128,1.7,4.235,3.492,6.262,5.333a1.624,1.624,0,0,1-1.092,2.826ZM82.492,47.534a1.624,1.624,0,0,1-.879-2.992c2.306-1.48,4.681-2.9,7.053-4.213a1.625,1.625,0,1,1,1.574,2.843c-2.313,1.28-4.624,2.662-6.872,4.1A1.61,1.61,0,0,1,82.492,47.534Zm135.433-.06a1.616,1.616,0,0,1-.875-.255c-2.253-1.441-4.569-2.823-6.889-4.106a1.625,1.625,0,0,1,1.574-2.843c2.376,1.316,4.756,2.732,7.066,4.212a1.625,1.625,0,0,1-.875,2.992Zm-116.806-9.8a1.625,1.625,0,0,1-.635-3.119c2.5-1.064,5.073-2.061,7.655-2.968a1.624,1.624,0,0,1,1.075,3.065c-2.516.884-5.026,1.855-7.459,2.891A1.618,1.618,0,0,1,101.119,37.678Zm98.151-.049a1.612,1.612,0,0,1-.633-.128c-2.449-1.041-4.969-2.012-7.488-2.891a1.625,1.625,0,0,1,1.072-3.068c2.586.9,5.168,1.9,7.684,2.968a1.624,1.624,0,0,1-.635,3.12ZM121.134,31.1a1.623,1.623,0,0,1-.372-3.2c2.646-.629,5.355-1.181,8.055-1.639a1.625,1.625,0,1,1,.543,3.2c-2.626.445-5.269.981-7.849,1.593A1.59,1.59,0,0,1,121.134,31.1Zm58.085-.036a1.748,1.748,0,0,1-.375-.042c-2.576-.609-5.216-1.144-7.852-1.587a1.625,1.625,0,0,1,.539-3.2c2.706.458,5.415,1.005,8.058,1.628a1.625,1.625,0,0,1-.37,3.206Zm-37.232-3.089a1.624,1.624,0,0,1-.1-3.245c2.719-.177,5.485-.268,8.217-.271h0c.054,0,.1,0,.153,0,2.721,0,5.484.086,8.212.26a1.625,1.625,0,0,1,1.52,1.723,1.652,1.652,0,0,1-1.727,1.519c-2.659-.169-5.355-.253-8.006-.253l-.149,0c-2.665,0-5.359.091-8.011.265C142.059,27.971,142.02,27.973,141.986,27.973Z" transform="translate(14.371 0.029)" fill="#cceaf3"/>
    <g id="Grupo_500" data-name="Grupo 500" transform="translate(48.982 83.896)">
      <g id="Grupo_499" data-name="Grupo 499">
        <g id="Grupo_496" data-name="Grupo 496" transform="translate(0 136.138)">
          <g id="Grupo_629" data-name="Grupo 629" transform="translate(0 0.005)">
            <path id="Trazado_504" data-name="Trazado 504" d="M244.393,159.594l-199.54.162a13.711,13.711,0,0,1-13.7-13.728h0l226.908-.177h0A13.71,13.71,0,0,1,244.393,159.594Z" transform="translate(-29.531 -144.225)" fill="#1786e2"/>
            <path id="Trazado_620" data-name="Trazado 620" d="M45.473,162.006h-.013a15.353,15.353,0,0,1-15.3-15.351l0-1.624,230.159-.18v1.626a15.352,15.352,0,0,1-15.288,15.367ZM33.5,148.276a12.1,12.1,0,0,0,11.957,10.482v1.624l.01-1.624,199.553-.162A12.1,12.1,0,0,0,256.972,148.1Z" transform="translate(-30.156 -144.85)" fill="#005296"/>
          </g>
          <g id="Grupo_630" data-name="Grupo 630" transform="translate(0.002)">
            <path id="Trazado_505" data-name="Trazado 505" d="M244.389,154.867l-199.54.161a13.672,13.672,0,0,1-12.84-9h-.851a13.712,13.712,0,0,0,13.7,13.728l199.542-.164a13.714,13.714,0,0,0,13.673-13.748h-.849A13.683,13.683,0,0,1,244.389,154.867Z" transform="translate(-29.532 -144.223)" fill="#4084fb"/>
            <path id="Trazado_621" data-name="Trazado 621" d="M45.474,162.008h-.013a15.353,15.353,0,0,1-15.3-15.351l0-1.626h3.6l.388,1.066a12.1,12.1,0,0,0,11.319,7.931l199.554-.161a12.106,12.106,0,0,0,11.31-7.953l.39-1.067h3.6l0,1.623a15.353,15.353,0,0,1-15.292,15.374Zm-9.831-8.329a12.047,12.047,0,0,0,9.818,5.081v1.624l.01-1.624,199.551-.164a12.039,12.039,0,0,0,9.821-5.1,15.264,15.264,0,0,1-9.821,3.617l-199.553.161A15.28,15.28,0,0,1,35.644,153.678Z" transform="translate(-30.157 -144.847)" fill="#005296"/>
          </g>
          <g id="Grupo_631" data-name="Grupo 631" transform="translate(95.911 0.073)">
            <path id="Trazado_506" data-name="Trazado 506" d="M120.97,150.5l-25.885.021a4.6,4.6,0,0,1-4.6-4.593h0l35.085-.031h0a4.6,4.6,0,0,1-4.6,4.6Z" transform="translate(-88.854 -144.267)" fill="#0042b6"/>
            <path id="Trazado_622" data-name="Trazado 622" d="M95.711,152.767h0a6.232,6.232,0,0,1-6.226-6.216l0-1.624,38.336-.034v1.624a6.231,6.231,0,0,1-6.218,6.229Zm-2.493-4.6a2.979,2.979,0,0,0,2.492,1.347l25.883-.021a2.956,2.956,0,0,0,2.107-.874,3.223,3.223,0,0,0,.39-.479Z" transform="translate(-89.48 -144.892)" fill="#005296"/>
          </g>
        </g>
        <g id="Grupo_632" data-name="Grupo 632" transform="translate(11.628)">
          <path id="Trazado_507" data-name="Trazado 507" d="M241.874,198.181l-203.462.162-.1-123.35A12.786,12.786,0,0,1,51.06,62.173h0l177.948-.14a12.784,12.784,0,0,1,12.777,12.8v0Z" transform="translate(-36.691 -60.409)" fill="#1786e2"/>
          <path id="Trazado_623" data-name="Trazado 623" d="M37.414,200.593l-.1-124.974A14.424,14.424,0,0,1,51.676,61.173l177.961-.14a14.434,14.434,0,0,1,14.4,14.42l.087,124.974ZM229.656,64.282l-177.973.14A11.179,11.179,0,0,0,40.55,75.616l.1,121.726,200.24-.159L240.8,75.46A11.185,11.185,0,0,0,229.656,64.282Z" transform="translate(-37.315 -61.033)" fill="#005296"/>
        </g>
        <rect id="Rectángulo_126" data-name="Rectángulo 126" width="182.18" height="114.849" transform="translate(23.938 12.347)" fill="#fff"/>
        <rect id="Rectángulo_127" data-name="Rectángulo 127" width="182.18" height="10.98" transform="translate(23.979 116.216)" fill="#d3d4dd" opacity="0.16" style="isolation: isolate"/>
        <rect id="Rectángulo_128" data-name="Rectángulo 128" width="182.18" height="5.45" transform="translate(23.897 12.347)" fill="#d3d4dd" opacity="0.16" style="isolation: isolate"/>
        <g id="Grupo_633" data-name="Grupo 633" transform="translate(22.014 10.194)">
          <path id="Rectángulo_76-2" data-name="Rectángulo 76-2" d="M46.653,68.309H225.209a2.034,2.034,0,0,1,1.941,2.112V181.567a2.031,2.031,0,0,1-1.941,2.108H46.651a2.031,2.031,0,0,1-1.94-2.108V70.427A2.035,2.035,0,0,1,46.653,68.309Z" transform="translate(-43.085 -66.685)" fill="#eef7fd"/>
          <path id="Trazado_624" data-name="Trazado 624" d="M225.872,185.924H47.268a3.67,3.67,0,0,1-3.555-3.794l0-111.079a3.649,3.649,0,0,1,3.49-3.741l178.639,0a3.669,3.669,0,0,1,3.555,3.8l0,111.085a3.637,3.637,0,0,1-3.495,3.731Zm-.1-115.368-178.505,0a.414.414,0,0,0-.327.43l0,111.2a.43.43,0,0,0,.393.486l178.458,0a.411.411,0,0,0,.37-.422l0-111.209A.43.43,0,0,0,225.775,70.556Z" transform="translate(-43.709 -67.309)" fill="#005296"/>
        </g>
      </g>
      <path id="Trazado_511" data-name="Trazado 511" d="M213.539,154.408" transform="translate(83.432 -2.74)" fill="none" stroke="#243853" stroke-width="0.876"/>
    </g>
    <g id="Grupo_634" data-name="Grupo 634" transform="translate(125.895 114.527)">
      <path id="Trazado_625" data-name="Trazado 625" d="M152.146,119.431a36.692,36.692,0,1,1-36.691-36.693A36.691,36.691,0,0,1,152.146,119.431Z" transform="translate(-77.138 -81.114)" fill="#fff" stroke="#f44336" stroke-width="3"/>
      <path id="Trazado_626" data-name="Trazado 626" d="M116.079,158.369a38.315,38.315,0,1,1,38.315-38.314A38.36,38.36,0,0,1,116.079,158.369Zm0-73.382a35.067,35.067,0,1,0,35.067,35.068A35.108,35.108,0,0,0,116.079,84.987Z" transform="translate(-77.762 -81.738)" fill="#f44336" stroke="#f44336" stroke-width="3"/>
    </g>
    <path id="Trazado_628" data-name="Trazado 628" d="M97.114,151.557a6.046,6.046,0,0,1-4.218-1.694,5.654,5.654,0,0,1,0-8.174l46.132-44.7c2.327-2.258,8.436,0,8.436,0s2.33,5.917,0,8.174l-46.129,44.7A6.048,6.048,0,0,1,97.114,151.557Z" transform="translate(44.155 29.117)" fill="#f44336"/>
  </g>
</svg>
