<svg xmlns="http://www.w3.org/2000/svg" width="350" height="257.686" viewBox="0 0 350 257.686">
  <g id="Grupo_666" data-name="Grupo 666" transform="translate(-884 -236.084)">
    <g id="Grupo_649" data-name="Grupo 649" transform="translate(884 211.674)">
      <g id="Grupo_495" data-name="Grupo 495" transform="translate(0 24.41)">
        <g id="Grupo_487" data-name="Grupo 487" transform="translate(0 18.56)">
          <path id="Trazado_494" data-name="Trazado 494" d="M277.669,197.939h-27.3a16.488,16.488,0,0,1-16.879-16.068v-3.626a16.489,16.489,0,0,1,16.879-16.068h58.415A16.491,16.491,0,0,0,325.661,146.1V142.48a16.5,16.5,0,0,0-16.879-16.072H275.109C266.15,75.058,219.308,35.9,162.826,35.9A116.843,116.843,0,0,0,92.4,59.217H45.671A16.49,16.49,0,0,0,28.792,75.29v3.622A16.489,16.489,0,0,0,45.671,94.983H68.88a16.488,16.488,0,0,1,16.879,16.068v3.626A16.49,16.49,0,0,1,68.88,130.746h-50.1a17.9,17.9,0,0,0-1.77,35.765c.59.029,1.181.029,1.77,0h32.6c10.768,49.2,56.567,86.171,111.443,86.171A117.278,117.278,0,0,0,227.164,233.7h50.5a16.492,16.492,0,0,0,16.883-16.072v-3.625A16.493,16.493,0,0,0,277.669,197.939Z" transform="translate(0 -35.902)" fill="#e8e8e8"/>
          <path id="Rectángulo_95" data-name="Rectángulo 95" d="M207.339,140.21H215.4a15.522,15.522,0,0,1,15.519,15.521h0A15.521,15.521,0,0,1,215.4,171.251h-8.066a15.522,15.522,0,0,1-15.521-15.519h0A15.522,15.522,0,0,1,207.339,140.21Z" transform="translate(119.076 29.06)" fill="#e8e8e8"/>
        </g>
        <path id="Elipse_28" data-name="Elipse 28" d="M168.711,117.318a4.857,4.857,0,1,1-4.858,4.858A4.859,4.859,0,0,1,168.711,117.318Z" transform="translate(101.635 33.224)" fill="#b6cddd"/>
        <path id="Trazado_640" data-name="Trazado 640" d="M50.98,42.874a9.232,9.232,0,1,1,9.232-9.232A9.242,9.242,0,0,1,50.98,42.874Zm0-12a2.772,2.772,0,1,0,2.771,2.772A2.775,2.775,0,0,0,50.98,30.87Z" transform="translate(25.901 -24.41)" fill="#b6cddd"/>
        <path id="Trazado_497" data-name="Trazado 497" d="M165.461,172.486c0-1.1-2.033-2.032-4.87-2.373-.341-2.833-1.274-4.87-2.373-4.87s-2.029,2.037-2.373,4.87c-2.833.341-4.87,1.271-4.87,2.373s2.037,2.029,4.87,2.369c.341,2.836,1.274,4.873,2.373,4.873s2.032-2.037,2.373-4.873C163.421,174.515,165.461,173.584,165.461,172.486Z" transform="translate(93.659 63.019)" fill="#b6cddd"/>
        <path id="Trazado_498" data-name="Trazado 498" d="M50.533,176.266c-.874-.871-3.23,0-5.745,1.985-2.52-1.978-4.874-2.855-5.747-1.985s0,3.23,1.987,5.745c-1.98,2.52-2.857,4.876-1.987,5.746s3.23,0,5.747-1.983c2.516,1.977,4.873,2.854,5.745,1.983s0-3.23-1.983-5.746C50.527,179.493,51.4,177.137,50.533,176.266Z" transform="translate(24.009 69.591)" fill="#b6cddd"/>
        <path id="Trazado_499" data-name="Trazado 499" d="M143.373,53.706c-.808-.808-3.009,0-5.359,1.853-2.352-1.846-4.546-2.663-5.361-1.853s0,3.011,1.849,5.36c-1.843,2.35-2.66,4.545-1.849,5.359s3.009,0,5.361-1.848c2.35,1.841,4.548,2.658,5.359,1.848s0-3.012-1.853-5.359C143.366,56.717,144.187,54.52,143.373,53.706Z" transform="translate(82.089 -6.43)" fill="#b6cddd"/>
      </g>
      <path id="Trazado_641" data-name="Trazado 641" d="M143.161,278.129a.681.681,0,0,1-.082,0c-2.712-.136-5.454-.365-8.147-.674a1.619,1.619,0,0,1,.368-3.218c2.624.3,5.3.522,7.94.655a1.621,1.621,0,0,1-.079,3.24Zm12.908-.013a1.62,1.62,0,0,1-.078-3.237c2.633-.133,5.3-.358,7.937-.664a1.62,1.62,0,0,1,.371,3.218c-2.7.314-5.441.544-8.145.684Zm-33.683-2.8a1.664,1.664,0,0,1-.354-.039c-2.649-.588-5.312-1.275-7.917-2.035a1.619,1.619,0,0,1,.9-3.111c2.541.74,5.136,1.408,7.717,1.982a1.621,1.621,0,0,1-.347,3.2Zm54.456-.036a1.621,1.621,0,0,1-.35-3.2c2.578-.577,5.173-1.248,7.712-1.994a1.62,1.62,0,0,1,.906,3.111c-2.605.766-5.268,1.452-7.916,2.045A1.56,1.56,0,0,1,176.842,275.284Zm-74.472-6.238a1.6,1.6,0,0,1-.612-.12c-2.516-1.029-5.031-2.158-7.475-3.347a1.62,1.62,0,0,1,1.415-2.915c2.379,1.162,4.828,2.26,7.281,3.263a1.62,1.62,0,0,1-.609,3.119Zm94.473-.06a1.621,1.621,0,0,1-.61-3.119c2.447-1,4.892-2.1,7.261-3.263a1.619,1.619,0,0,1,1.416,2.912c-2.432,1.192-4.941,2.319-7.455,3.351A1.591,1.591,0,0,1,196.843,268.986ZM83.684,259.48a1.618,1.618,0,0,1-.851-.243c-2.316-1.444-4.6-2.978-6.806-4.558a1.619,1.619,0,0,1,1.88-2.636c2.143,1.541,4.375,3.035,6.632,4.441a1.619,1.619,0,0,1-.854,3Zm131.816-.073a1.619,1.619,0,0,1-.854-2.993c2.234-1.4,4.461-2.89,6.615-4.441a1.619,1.619,0,0,1,1.883,2.633c-2.211,1.593-4.5,3.124-6.791,4.558A1.625,1.625,0,0,1,215.5,259.407ZM66.864,246.914a1.607,1.607,0,0,1-1.069-.405c-2.03-1.8-4.031-3.692-5.952-5.625a1.618,1.618,0,0,1,2.29-2.286c1.87,1.888,3.821,3.731,5.8,5.484a1.62,1.62,0,0,1,.141,2.285A1.6,1.6,0,0,1,66.864,246.914Zm165.431-.081A1.62,1.62,0,0,1,231.226,244c1.98-1.758,3.93-3.6,5.792-5.486a1.617,1.617,0,1,1,2.292,2.281c-1.911,1.933-3.91,3.829-5.942,5.634A1.626,1.626,0,0,1,232.295,246.833ZM52.365,231.721a1.608,1.608,0,0,1-1.257-.6c-1.717-2.129-3.377-4.329-4.933-6.541a1.616,1.616,0,0,1,2.637-1.87c1.517,2.155,3.133,4.3,4.807,6.372a1.62,1.62,0,0,1-1.255,2.639Zm194.412-.1a1.6,1.6,0,0,1-1.013-.358,1.628,1.628,0,0,1-.244-2.278c1.66-2.058,3.275-4.206,4.8-6.384a1.617,1.617,0,1,1,2.641,1.868c-1.572,2.237-3.23,4.439-4.931,6.551A1.612,1.612,0,0,1,246.777,231.624ZM40.594,214.32a1.615,1.615,0,0,1-1.41-.826c-1.328-2.37-2.6-4.815-3.77-7.268a1.616,1.616,0,1,1,2.912-1.4c1.143,2.388,2.381,4.772,3.674,7.082a1.622,1.622,0,0,1-.615,2.205A1.6,1.6,0,0,1,40.594,214.32Zm217.942-.117a1.615,1.615,0,0,1-1.407-2.411c1.292-2.317,2.529-4.707,3.671-7.1a1.617,1.617,0,1,1,2.915,1.4c-1.174,2.459-2.442,4.911-3.77,7.288A1.618,1.618,0,0,1,258.537,214.2ZM31.9,195.19a1.615,1.615,0,0,1-1.521-1.073c-.908-2.547-1.751-5.177-2.5-7.809a1.615,1.615,0,1,1,3.1-.893c.733,2.566,1.554,5.126,2.439,7.612a1.618,1.618,0,0,1-.976,2.069A1.565,1.565,0,0,1,31.9,195.19Zm235.326-.141a1.621,1.621,0,0,1-1.521-2.165c.887-2.5,1.7-5.057,2.426-7.612a1.617,1.617,0,1,1,3.111.886c-.745,2.623-1.58,5.25-2.492,7.814A1.619,1.619,0,0,1,267.221,195.049ZM26.527,174.859a1.619,1.619,0,0,1-1.589-1.34c-.47-2.686-.859-5.42-1.155-8.116a1.615,1.615,0,1,1,3.211-.355c.287,2.63.667,5.292,1.127,7.911a1.623,1.623,0,0,1-1.313,1.876A1.645,1.645,0,0,1,26.527,174.859Zm246.04-.149a1.7,1.7,0,0,1-.281-.026,1.617,1.617,0,0,1-1.311-1.873c.454-2.63.83-5.292,1.113-7.912a1.616,1.616,0,1,1,3.212.348c-.291,2.69-.675,5.421-1.142,8.121A1.623,1.623,0,0,1,272.567,174.71ZM24.637,153.916a1.617,1.617,0,0,1-1.615-1.611l0-.933c0-2.419.069-4.861.205-7.263a1.615,1.615,0,1,1,3.225.183c-.132,2.343-.2,4.725-.2,7.08l0,.917a1.616,1.616,0,0,1-1.607,1.627Zm249.8-.152h-.01a1.614,1.614,0,0,1-1.605-1.63v-.762c0-2.4-.069-4.833-.205-7.231a1.613,1.613,0,0,1,1.517-1.713,1.634,1.634,0,0,1,1.707,1.525c.142,2.463.212,4.959.212,7.419v.781A1.619,1.619,0,0,1,274.433,153.764ZM26.227,132.948a1.372,1.372,0,0,1-.257-.021,1.618,1.618,0,0,1-1.339-1.855c.43-2.69.955-5.4,1.559-8.052a1.615,1.615,0,1,1,3.149.721c-.59,2.586-1.1,5.224-1.52,7.845A1.616,1.616,0,0,1,26.227,132.948Zm246.588-.154a1.617,1.617,0,0,1-1.594-1.364c-.418-2.61-.934-5.25-1.526-7.839a1.615,1.615,0,1,1,3.148-.724c.609,2.657,1.135,5.366,1.568,8.048a1.619,1.619,0,0,1-1.337,1.857A1.427,1.427,0,0,1,272.814,132.794ZM31.29,112.538a1.586,1.586,0,0,1-.522-.086A1.621,1.621,0,0,1,29.76,110.4c.882-2.6,1.856-5.181,2.9-7.688a1.616,1.616,0,1,1,2.981,1.248c-1.013,2.44-1.961,4.956-2.82,7.484A1.616,1.616,0,0,1,31.29,112.538Zm236.439-.146a1.619,1.619,0,0,1-1.529-1.1c-.858-2.513-1.8-5.021-2.817-7.461a1.615,1.615,0,1,1,2.98-1.248c1.039,2.506,2.014,5.083,2.9,7.659a1.621,1.621,0,0,1-1.006,2.056A1.593,1.593,0,0,1,267.728,112.392ZM39.711,93.262a1.605,1.605,0,0,1-.769-.2,1.624,1.624,0,0,1-.648-2.2c1.3-2.4,2.691-4.778,4.138-7.082a1.616,1.616,0,1,1,2.731,1.727c-1.41,2.244-2.765,4.566-4.031,6.9A1.613,1.613,0,0,1,39.711,93.262ZM259.3,93.155a1.613,1.613,0,0,1-1.418-.846c-1.263-2.325-2.62-4.642-4.035-6.886a1.617,1.617,0,1,1,2.731-1.73c1.45,2.3,2.843,4.681,4.138,7.066a1.624,1.624,0,0,1-.646,2.2A1.584,1.584,0,0,1,259.3,93.155ZM51.238,75.681a1.606,1.606,0,0,1-1-.345,1.623,1.623,0,0,1-.271-2.275c1.673-2.137,3.44-4.253,5.254-6.285a1.607,1.607,0,0,1,2.279-.131,1.626,1.626,0,0,1,.128,2.289c-1.767,1.983-3.49,4.044-5.121,6.129A1.611,1.611,0,0,1,51.238,75.681ZM247.764,75.6a1.611,1.611,0,0,1-1.271-.617c-1.634-2.085-3.356-4.143-5.123-6.12a1.618,1.618,0,1,1,2.407-2.163c1.811,2.03,3.577,4.14,5.256,6.28a1.618,1.618,0,0,1-1.268,2.62ZM65.522,60.277a1.621,1.621,0,0,1-1.087-2.819c2-1.829,4.1-3.616,6.221-5.319a1.618,1.618,0,0,1,2.016,2.531c-2.072,1.659-4.11,3.406-6.063,5.188A1.617,1.617,0,0,1,65.522,60.277Zm167.949-.07a1.606,1.606,0,0,1-1.085-.42c-1.964-1.789-4.005-3.532-6.068-5.181a1.619,1.619,0,1,1,2.012-2.536c2.116,1.695,4.211,3.482,6.226,5.318a1.623,1.623,0,0,1,.11,2.288A1.6,1.6,0,0,1,233.471,60.208ZM82.156,47.476a1.621,1.621,0,0,1-.874-2.984c2.293-1.476,4.655-2.89,7.014-4.2a1.619,1.619,0,0,1,1.563,2.835c-2.3,1.277-4.6,2.656-6.833,4.094A1.6,1.6,0,0,1,82.156,47.476Zm134.667-.06a1.6,1.6,0,0,1-.871-.254c-2.24-1.437-4.543-2.816-6.85-4.1a1.619,1.619,0,0,1,1.565-2.835c2.363,1.312,4.729,2.725,7.026,4.2a1.621,1.621,0,0,1,.488,2.238A1.6,1.6,0,0,1,216.822,47.416ZM100.678,37.645a1.621,1.621,0,0,1-.631-3.111c2.486-1.061,5.044-2.056,7.612-2.96a1.619,1.619,0,0,1,1.069,3.057c-2.5.881-5,1.85-7.417,2.884A1.6,1.6,0,0,1,100.678,37.645Zm97.6-.049a1.6,1.6,0,0,1-.63-.128c-2.436-1.039-4.941-2.007-7.446-2.884a1.62,1.62,0,0,1,1.066-3.061c2.571.9,5.139,1.9,7.641,2.96a1.621,1.621,0,0,1-.631,3.112Zm-77.694-6.515a1.62,1.62,0,0,1-.37-3.2c2.631-.627,5.325-1.178,8.009-1.635a1.621,1.621,0,0,1,.539,3.2c-2.612.444-5.239.979-7.8,1.589A1.576,1.576,0,0,1,120.579,31.081Zm57.756-.036a1.733,1.733,0,0,1-.373-.042c-2.562-.608-5.186-1.141-7.807-1.583a1.621,1.621,0,0,1,.536-3.2c2.691.457,5.385,1,8.012,1.623a1.621,1.621,0,0,1-.368,3.2Zm-37.021-3.082a1.62,1.62,0,0,1-.1-3.237c2.7-.177,5.454-.267,8.171-.271h0c.053,0,.1,0,.152,0,2.705,0,5.453.086,8.166.259a1.619,1.619,0,0,1,1.512,1.719,1.644,1.644,0,0,1-1.717,1.515c-2.644-.169-5.325-.253-7.961-.253l-.149,0c-2.65,0-5.328.091-7.966.264C141.386,27.962,141.347,27.964,141.313,27.964Z" transform="translate(14.159 0.028)" fill="#cceaf3"/>
      <g id="Grupo_661" data-name="Grupo 661" transform="translate(-1 6)">
        <g id="Grupo_643" data-name="Grupo 643" transform="translate(71.459 82.16)">
          <rect id="Rectángulo_205" data-name="Rectángulo 205" width="172.029" height="131.364" transform="translate(2.787 2.786)" fill="#fff"/>
          <path id="Trazado_642" data-name="Trazado 642" d="M224.318,196.862H52.29a2.783,2.783,0,0,1-2.788-2.783V62.715a2.785,2.785,0,0,1,2.788-2.786H224.318a2.786,2.786,0,0,1,2.788,2.786V194.079A2.784,2.784,0,0,1,224.318,196.862ZM55.079,191.286H221.531V65.506H55.079Z" transform="translate(-49.502 -59.929)" fill="#005296"/>
        </g>
        <g id="Grupo_644" data-name="Grupo 644" transform="translate(71.459 81.984)">
          <rect id="Rectángulo_206" data-name="Rectángulo 206" width="172.03" height="29.364" transform="translate(4.325 2.787)" fill="#1786e2"/>
          <path id="Trazado_643" data-name="Trazado 643" d="M224.318,94.865H52.29A2.784,2.784,0,0,1,49.5,92.077V62.715a2.785,2.785,0,0,1,2.788-2.786H224.318a2.786,2.786,0,0,1,2.788,2.786V92.077A2.785,2.785,0,0,1,224.318,94.865ZM55.079,89.288H221.531V65.506H55.079Z" transform="translate(-49.502 -59.929)" fill="#005296"/>
        </g>
        <g id="Grupo_645" data-name="Grupo 645" transform="translate(87.99 95.3)">
          <path id="Trazado_644" data-name="Trazado 644" d="M68.213,72.333a4.176,4.176,0,1,1-4.175-4.172A4.173,4.173,0,0,1,68.213,72.333Z" transform="translate(-59.861 -68.161)" fill="#005296"/>
        </g>
        <g id="Grupo_646" data-name="Grupo 646" transform="translate(101.555 95.3)">
          <path id="Trazado_645" data-name="Trazado 645" d="M76.583,72.333a4.175,4.175,0,1,1-4.172-4.172A4.171,4.171,0,0,1,76.583,72.333Z" transform="translate(-68.233 -68.161)" fill="#005296"/>
        </g>
        <g id="Grupo_647" data-name="Grupo 647" transform="translate(115.122 95.3)">
          <path id="Trazado_646" data-name="Trazado 646" d="M84.959,72.333a4.177,4.177,0,1,1-4.18-4.172A4.175,4.175,0,0,1,84.959,72.333Z" transform="translate(-76.606 -68.161)" fill="#005296"/>
        </g>
      </g>
    </g>
    <g id="Grupo_662" data-name="Grupo 662" transform="translate(1002.774 349.22)">
      <path id="Trazado_656" data-name="Trazado 656" d="M91.041,99.436H83.829v4.88h8.463v3.018H80.076V89.109h12.19v3.043H83.829v4.342h7.212Z" transform="translate(-80.076 -88.86)" fill="#b4b4b4"/>
      <path id="Trazado_657" data-name="Trazado 657" d="M95.731,100.663H92.74v6.671H88.985V89.109h6.771a7.655,7.655,0,0,1,4.982,1.44,4.962,4.962,0,0,1,1.751,4.067,5.612,5.612,0,0,1-.806,3.111,5.508,5.508,0,0,1-2.449,1.984l3.944,7.446v.176h-4.03ZM92.74,97.622h3.03a3.1,3.1,0,0,0,2.19-.722,2.569,2.569,0,0,0,.777-1.983A2.756,2.756,0,0,0,98,92.89a3.041,3.041,0,0,0-2.246-.738H92.74Z" transform="translate(-74.566 -88.86)" fill="#b4b4b4"/>
      <path id="Trazado_658" data-name="Trazado 658" d="M105.84,100.663h-2.992v6.671H99.094V89.109h6.77a7.652,7.652,0,0,1,4.982,1.44,4.962,4.962,0,0,1,1.751,4.067,5.612,5.612,0,0,1-.806,3.111,5.512,5.512,0,0,1-2.447,1.984l3.942,7.446v.176h-4.03Zm-2.992-3.041h3.03a3.106,3.106,0,0,0,2.191-.722,2.573,2.573,0,0,0,.775-1.983,2.749,2.749,0,0,0-.733-2.028,3.041,3.041,0,0,0-2.246-.738h-3.017Z" transform="translate(-68.315 -88.86)" fill="#b4b4b4"/>
      <path id="Trazado_659" data-name="Trazado 659" d="M124.381,98.73a11.007,11.007,0,0,1-.952,4.719,7.147,7.147,0,0,1-2.721,3.127,8.042,8.042,0,0,1-8.105.013,7.2,7.2,0,0,1-2.753-3.111,10.658,10.658,0,0,1-.99-4.65v-.9a10.927,10.927,0,0,1,.971-4.736,7.231,7.231,0,0,1,2.74-3.143,8.041,8.041,0,0,1,8.1,0,7.235,7.235,0,0,1,2.742,3.143,10.924,10.924,0,0,1,.969,4.724Zm-3.8-.827a7.673,7.673,0,0,0-1.028-4.357,3.627,3.627,0,0,0-5.846-.016,7.583,7.583,0,0,0-1.037,4.311v.889a7.755,7.755,0,0,0,1.026,4.329,3.593,3.593,0,0,0,5.857.058,7.73,7.73,0,0,0,1.028-4.324Z" transform="translate(-62.275 -88.955)" fill="#b4b4b4"/>
      <path id="Trazado_660" data-name="Trazado 660" d="M126.883,100.663H123.89v6.671h-3.753V89.109h6.77a7.652,7.652,0,0,1,4.981,1.44,4.962,4.962,0,0,1,1.751,4.067,5.612,5.612,0,0,1-.806,3.111,5.513,5.513,0,0,1-2.447,1.984l3.942,7.446v.176H130.3Zm-2.992-3.041h3.03a3.106,3.106,0,0,0,2.191-.722,2.573,2.573,0,0,0,.775-1.983,2.749,2.749,0,0,0-.733-2.028,3.041,3.041,0,0,0-2.246-.738H123.89Z" transform="translate(-55.301 -88.86)" fill="#b4b4b4"/>
    </g>
    <g id="Grupo_663" data-name="Grupo 663" transform="translate(996.844 374.856)">
      <path id="Trazado_661" data-name="Trazado 661" d="M99.177,128.074h4.179v5.9H99.177v7.977H91.86v-7.977H76.743l-.329-4.609,15.37-24.281h7.393Zm-15.47,0H91.86V115.059l-.481.835Z" transform="translate(-76.414 -104.575)" fill="#b4b4b4"/>
      <path id="Trazado_662" data-name="Trazado 662" d="M120.34,126.9q0,7.647-3.166,11.7t-9.265,4.051q-6.03,0-9.219-3.975t-3.266-11.4V120.5q0-7.725,3.2-11.724t9.23-4q6.025,0,9.217,3.964t3.266,11.381Zm-7.317-7.463q0-4.586-1.254-6.678a4.236,4.236,0,0,0-3.912-2.091,4.163,4.163,0,0,0-3.811,1.989q-1.228,1.991-1.3,6.223v8.973q0,4.511,1.228,6.7a4.179,4.179,0,0,0,3.939,2.193,4.107,4.107,0,0,0,3.873-2.1,13.855,13.855,0,0,0,1.241-6.438Z" transform="translate(-64.658 -104.769)" fill="#b4b4b4"/>
      <path id="Trazado_663" data-name="Trazado 663" d="M135.945,128.074h4.179v5.9h-4.179v7.977h-7.317v-7.977H113.511l-.329-4.609,15.37-24.281h7.393Zm-15.472,0h8.155V115.059l-.481.835Z" transform="translate(-53.676 -104.575)" fill="#b4b4b4"/>
    </g>
    <g id="Grupo_664" data-name="Grupo 664" transform="translate(1082.821 391.695)">
      <g id="Grupo_657" data-name="Grupo 657">
        <path id="Trazado_664" data-name="Trazado 664" d="M190.152,146.791a32.733,32.733,0,1,1-32.734-32.736A32.733,32.733,0,0,1,190.152,146.791Z" transform="translate(-121.448 -110.818)" fill="#fff"/>
        <path id="Trazado_665" data-name="Trazado 665" d="M158.654,184a35.97,35.97,0,1,1,35.971-35.968A36.009,36.009,0,0,1,158.654,184Zm0-65.467a29.5,29.5,0,1,0,29.5,29.5A29.53,29.53,0,0,0,158.654,118.529Z" transform="translate(-122.685 -112.055)" fill="#f44336"/>
      </g>
      <path id="Trazado_666" data-name="Trazado 666" d="M161.619,154.227a3.231,3.231,0,0,1-2.288-.948L136.941,130.89a3.236,3.236,0,1,1,4.577-4.577L163.907,148.7a3.237,3.237,0,0,1-2.288,5.525Z" transform="translate(-114.455 -103.825)" fill="#f44336"/>
      <path id="Trazado_667" data-name="Trazado 667" d="M139.23,154.227a3.237,3.237,0,0,1-2.288-5.525l22.389-22.389a3.236,3.236,0,1,1,4.577,4.577l-22.389,22.389A3.228,3.228,0,0,1,139.23,154.227Z" transform="translate(-114.455 -103.825)" fill="#f44336"/>
    </g>
  </g>
</svg>
