<svg xmlns="http://www.w3.org/2000/svg" viewBox="0 0 58 58"><path d="M28.86.42h0A28.64,28.64,0,1,0,57.5,29.06,28.63,28.63,0,0,0,28.86.42Zm0,48.91A20.28,20.28,0,1,1,49.14,29.05,20.28,20.28,0,0,1,28.87,49.33Z" style="fill:#37bbed"/><path d="M26.1,42.91a4,4,0,0,1-1.69-1.48,4.2,4.2,0,0,1-.6-2.27A4,4,0,0,1,25.1,36a5.14,5.14,0,0,1,3.56-1.11,5.88,5.88,0,0,1,2.58.53A4,4,0,0,1,32.92,37a4.47,4.47,0,0,1,0,4.5A3.91,3.91,0,0,1,31.21,43a6.41,6.41,0,0,1-5.15,0Zm.29-9.49-1.82-8.37V16.27h8.21V25l-1.72,8.37Z" style="fill:#37bbed"/></svg>