<svg xmlns="http://www.w3.org/2000/svg" width="294.236" height="221.794" viewBox="0 0 294.236 221.794">
  <g id="Grupo_5075" data-name="Grupo 5075" transform="translate(-740.822 -208.26)">
    <g id="Grupo_5041" data-name="Grupo 5041" transform="translate(740.822 208.26)">
      <g id="Grupo_495" data-name="Grupo 495" transform="translate(0 5.164)">
        <g id="Grupo_487" data-name="Grupo 487" transform="translate(0 15.571)" style="isolation: isolate">
          <path id="Trazado_494" data-name="Trazado 494" d="M233.465,172.174H210.509a13.864,13.864,0,0,1-14.192-13.513v-3.05A13.865,13.865,0,0,1,210.509,142.1h49.115a13.867,13.867,0,0,0,14.192-13.516v-3.048a13.87,13.87,0,0,0-14.192-13.516H231.312C223.78,68.832,184.395,35.9,136.9,35.9A98.227,98.227,0,0,0,77.693,55.51H38.4A13.866,13.866,0,0,0,24.208,69.027v3.046A13.866,13.866,0,0,0,38.4,85.589H57.914A13.864,13.864,0,0,1,72.107,99.1v3.05a13.866,13.866,0,0,1-14.192,13.513H15.792A15.057,15.057,0,0,0,14.3,145.743c.5.025.993.025,1.488,0H43.2c9.054,41.38,47.562,72.469,93.7,72.469A98.591,98.591,0,0,0,191,202.252h42.459a13.868,13.868,0,0,0,14.195-13.516v-3.048A13.869,13.869,0,0,0,233.465,172.174Z" transform="translate(0 -35.902)" fill="#bbb" opacity="0.3"/>
          <path id="Rectángulo_95" data-name="Rectángulo 95" d="M204.84,140.21h6.767a13.022,13.022,0,0,1,13.02,13.022h0a13.022,13.022,0,0,1-13.02,13.02H204.84a13.022,13.022,0,0,1-13.022-13.02h0A13.023,13.023,0,0,1,204.84,140.21Z" transform="translate(69.609 2.242)" fill="#d7d7d7"/>
        </g>
        <path id="Elipse_28" data-name="Elipse 28" d="M167.929,117.318a4.075,4.075,0,1,1-4.076,4.076A4.077,4.077,0,0,1,167.929,117.318Z" transform="translate(59.349 9.249)" fill="#b6cddd"/>
        <path id="Trazado_640" data-name="Trazado 640" d="M49.493,39.9a7.745,7.745,0,1,1,7.745-7.745A7.754,7.754,0,0,1,49.493,39.9Zm0-10.071a2.325,2.325,0,1,0,2.325,2.325A2.328,2.328,0,0,0,49.493,29.83Z" transform="translate(15.129 -24.41)" fill="#61bdfd" opacity="0.36"/>
        <path id="Trazado_497" data-name="Trazado 497" d="M163.129,171.32c0-.924-1.706-1.7-4.085-1.99-.286-2.377-1.069-4.085-1.991-4.085s-1.7,1.709-1.991,4.085c-2.377.286-4.085,1.066-4.085,1.99s1.709,1.7,4.085,1.988c.286,2.379,1.069,4.088,1.991,4.088s1.7-1.709,1.991-4.088C161.417,173.022,163.129,172.241,163.129,171.32Z" transform="translate(54.701 26.701)" fill="#61bdfd" opacity="0.36"/>
        <path id="Trazado_498" data-name="Trazado 498" d="M48.628,176.212c-.733-.73-2.71,0-4.82,1.665-2.114-1.66-4.089-2.4-4.821-1.665s0,2.71,1.667,4.82c-1.661,2.114-2.4,4.091-1.667,4.821s2.71,0,4.821-1.664c2.111,1.659,4.088,2.394,4.82,1.664s0-2.71-1.664-4.821C48.623,178.919,49.359,176.942,48.628,176.212Z" transform="translate(14.021 30.494)" fill="#61bdfd" opacity="0.36"/>
        <path id="Trazado_499" data-name="Trazado 499" d="M141.6,53.656c-.678-.678-2.524,0-4.5,1.554-1.973-1.549-3.814-2.234-4.5-1.554s0,2.526,1.551,4.5c-1.546,1.972-2.232,3.813-1.551,4.5s2.524,0,4.5-1.55c1.972,1.545,3.816,2.23,4.5,1.55s0-2.527-1.554-4.5C141.59,56.182,142.279,54.339,141.6,53.656Z" transform="translate(47.938 -13.908)" fill="#b6cddd"/>
      </g>
      <path id="Trazado_641" data-name="Trazado 641" d="M123.815,237.719a.57.57,0,0,1-.069,0c-2.275-.114-4.576-.306-6.835-.567a1.361,1.361,0,0,1,.309-2.705c2.2.252,4.443.439,6.661.55a1.363,1.363,0,0,1-.066,2.724Zm10.829-.011a1.362,1.362,0,0,1-.065-2.722c2.209-.112,4.449-.3,6.659-.558a1.344,1.344,0,0,1,1.5,1.195,1.358,1.358,0,0,1-1.188,1.511c-2.266.264-4.565.458-6.833.575Zm-28.259-2.351a1.392,1.392,0,0,1-.3-.033c-2.222-.494-4.457-1.072-6.642-1.711a1.364,1.364,0,0,1-.924-1.689A1.35,1.35,0,0,1,100.2,231c2.131.622,4.309,1.184,6.474,1.666a1.363,1.363,0,0,1-.291,2.693Zm45.687-.03a1.363,1.363,0,0,1-.294-2.692c2.163-.485,4.34-1.049,6.47-1.677a1.362,1.362,0,0,1,.76,2.615c-2.186.644-4.42,1.22-6.641,1.719A1.307,1.307,0,0,1,152.073,235.327Zm-62.48-5.244a1.343,1.343,0,0,1-.514-.1c-2.111-.865-4.221-1.814-6.271-2.814A1.361,1.361,0,0,1,84,224.718c2,.977,4.05,1.9,6.108,2.743a1.362,1.362,0,0,1-.511,2.622Zm79.261-.05a1.363,1.363,0,0,1-.512-2.622c2.053-.845,4.1-1.767,6.092-2.743a1.35,1.35,0,0,1,1.813.628,1.364,1.364,0,0,1-.625,1.82c-2.041,1-4.145,1.949-6.255,2.817A1.332,1.332,0,0,1,168.853,230.033Zm-94.938-7.992a1.356,1.356,0,0,1-.714-.2c-1.943-1.214-3.863-2.5-5.71-3.832a1.36,1.36,0,0,1,1.577-2.216c1.8,1.3,3.671,2.551,5.564,3.734a1.362,1.362,0,0,1-.717,2.519Zm110.59-.061a1.349,1.349,0,0,1-1.15-.64,1.364,1.364,0,0,1,.434-1.876c1.874-1.174,3.743-2.43,5.55-3.734a1.35,1.35,0,0,1,1.892.312,1.367,1.367,0,0,1-.312,1.9c-1.855,1.339-3.774,2.626-5.7,3.832A1.361,1.361,0,0,1,184.505,221.98Zm-124.7-10.5a1.346,1.346,0,0,1-.9-.341c-1.7-1.511-3.382-3.1-4.993-4.729a1.368,1.368,0,0,1,.005-1.926,1.35,1.35,0,0,1,1.916,0c1.569,1.587,3.206,3.137,4.866,4.611a1.364,1.364,0,0,1,.118,1.921A1.341,1.341,0,0,1,59.8,211.477Zm138.792-.068a1.349,1.349,0,0,1-1.014-.458,1.366,1.366,0,0,1,.117-1.925c1.661-1.478,3.3-3.029,4.859-4.612a1.349,1.349,0,0,1,1.916-.008,1.367,1.367,0,0,1,.007,1.926c-1.6,1.625-3.28,3.219-4.985,4.736A1.363,1.363,0,0,1,198.6,211.409ZM47.64,198.7a1.348,1.348,0,0,1-1.054-.505c-1.44-1.79-2.833-3.64-4.138-5.5a1.362,1.362,0,0,1,.325-1.9,1.348,1.348,0,0,1,1.888.324c1.272,1.812,2.629,3.612,4.033,5.357a1.368,1.368,0,0,1-.2,1.916A1.353,1.353,0,0,1,47.64,198.7Zm163.107-.082a1.343,1.343,0,0,1-.85-.3,1.37,1.37,0,0,1-.2-1.915c1.393-1.73,2.748-3.536,4.031-5.367a1.352,1.352,0,0,1,1.889-.327,1.367,1.367,0,0,1,.327,1.9c-1.318,1.881-2.71,3.732-4.137,5.507A1.351,1.351,0,0,1,210.747,198.622ZM37.764,184.075a1.354,1.354,0,0,1-1.183-.695c-1.114-1.993-2.178-4.048-3.163-6.11a1.364,1.364,0,0,1,.636-1.817,1.347,1.347,0,0,1,1.808.639c.959,2.008,2,4.011,3.083,5.954a1.365,1.365,0,0,1-.516,1.854A1.339,1.339,0,0,1,37.764,184.075Zm182.848-.1a1.357,1.357,0,0,1-1.18-2.027c1.084-1.948,2.122-3.957,3.08-5.97a1.35,1.35,0,0,1,1.808-.642,1.367,1.367,0,0,1,.638,1.817c-.985,2.068-2.049,4.129-3.163,6.127A1.357,1.357,0,0,1,220.613,183.977ZM30.466,167.992a1.355,1.355,0,0,1-1.276-.9c-.762-2.141-1.469-4.352-2.1-6.565a1.355,1.355,0,1,1,2.6-.751c.615,2.158,1.3,4.31,2.046,6.4a1.361,1.361,0,0,1-.818,1.739A1.31,1.31,0,0,1,30.466,167.992Zm197.432-.119a1.361,1.361,0,0,1-1.276-1.82c.744-2.1,1.43-4.251,2.035-6.4a1.357,1.357,0,1,1,2.61.745c-.625,2.205-1.325,4.413-2.091,6.57A1.358,1.358,0,0,1,227.9,167.874ZM25.962,150.9a1.359,1.359,0,0,1-1.333-1.126c-.394-2.258-.721-4.556-.969-6.823a1.355,1.355,0,1,1,2.694-.3c.241,2.211.56,4.449.946,6.651a1.35,1.35,0,0,1-1.337,1.6Zm206.422-.125a1.421,1.421,0,0,1-.236-.022,1.359,1.359,0,0,1-1.1-1.575c.381-2.211.7-4.449.934-6.651a1.356,1.356,0,1,1,2.7.293c-.244,2.261-.566,4.558-.958,6.827A1.362,1.362,0,0,1,232.384,150.775ZM24.377,133.294a1.358,1.358,0,0,1-1.355-1.354l0-.785c0-2.034.058-4.086.172-6.106a1.355,1.355,0,1,1,2.706.154c-.111,1.97-.168,3.972-.168,5.952l0,.771a1.357,1.357,0,0,1-1.348,1.368Zm209.572-.128h-.008a1.356,1.356,0,0,1-1.347-1.37v-.64c0-2.017-.058-4.063-.172-6.079a1.355,1.355,0,0,1,1.272-1.44,1.372,1.372,0,0,1,1.432,1.282c.119,2.07.178,4.169.178,6.237v.657A1.36,1.36,0,0,1,233.949,133.166ZM25.71,115.665a1.148,1.148,0,0,1-.215-.018,1.36,1.36,0,0,1-1.123-1.56c.36-2.261.8-4.539,1.308-6.77a1.355,1.355,0,1,1,2.642.606c-.495,2.174-.923,4.392-1.275,6.6A1.357,1.357,0,0,1,25.71,115.665Zm206.881-.129a1.357,1.357,0,0,1-1.337-1.147c-.351-2.194-.783-4.413-1.281-6.59a1.355,1.355,0,1,1,2.641-.609c.511,2.234.953,4.511,1.316,6.766a1.361,1.361,0,0,1-1.122,1.561A1.2,1.2,0,0,1,232.591,115.536ZM29.958,98.506a1.328,1.328,0,0,1-.438-.072,1.363,1.363,0,0,1-.846-1.729c.74-2.182,1.557-4.356,2.43-6.463a1.356,1.356,0,1,1,2.5,1.049c-.85,2.051-1.645,4.167-2.366,6.292A1.356,1.356,0,0,1,29.958,98.506Zm198.366-.123a1.359,1.359,0,0,1-1.283-.921c-.72-2.113-1.514-4.221-2.363-6.273a1.356,1.356,0,1,1,2.5-1.049c.871,2.107,1.69,4.273,2.43,6.439a1.363,1.363,0,0,1-.844,1.729A1.333,1.333,0,0,1,228.324,98.384ZM37.023,82.3a1.345,1.345,0,0,1-.645-.165,1.367,1.367,0,0,1-.543-1.848c1.089-2.015,2.257-4.017,3.472-5.954A1.356,1.356,0,1,1,41.6,75.786c-1.183,1.887-2.32,3.838-3.382,5.8A1.353,1.353,0,0,1,37.023,82.3Zm184.226-.09a1.353,1.353,0,0,1-1.19-.711c-1.06-1.955-2.2-3.9-3.385-5.789a1.367,1.367,0,0,1,.423-1.88,1.352,1.352,0,0,1,1.869.425c1.217,1.937,2.385,3.935,3.472,5.94a1.366,1.366,0,0,1-.542,1.847A1.327,1.327,0,0,1,221.25,82.211ZM46.694,67.521a1.345,1.345,0,0,1-.836-.29,1.366,1.366,0,0,1-.228-1.912c1.4-1.8,2.886-3.576,4.408-5.284a1.346,1.346,0,0,1,1.912-.11,1.369,1.369,0,0,1,.107,1.925c-1.482,1.667-2.928,3.4-4.3,5.153A1.351,1.351,0,0,1,46.694,67.521Zm164.881-.069a1.351,1.351,0,0,1-1.066-.519c-1.371-1.753-2.816-3.483-4.3-5.145a1.367,1.367,0,0,1,.106-1.925,1.349,1.349,0,0,1,1.913.106c1.519,1.707,3,3.48,4.409,5.28a1.36,1.36,0,0,1-1.064,2.2Zm-152.9-12.88a1.35,1.35,0,0,1-1-.447,1.368,1.368,0,0,1,.091-1.923c1.68-1.538,3.436-3.04,5.22-4.472a1.35,1.35,0,0,1,1.9.215,1.364,1.364,0,0,1-.213,1.912c-1.738,1.395-3.449,2.863-5.087,4.362A1.355,1.355,0,0,1,58.678,54.571Zm140.9-.059a1.346,1.346,0,0,1-.911-.353c-1.648-1.5-3.36-2.969-5.091-4.356a1.369,1.369,0,0,1-.218-1.914,1.353,1.353,0,0,1,1.907-.218c1.775,1.425,3.533,2.927,5.224,4.47a1.366,1.366,0,0,1,.092,1.923A1.338,1.338,0,0,1,199.583,54.513ZM72.633,43.809A1.363,1.363,0,0,1,71.9,41.3c1.924-1.241,3.905-2.43,5.885-3.533a1.348,1.348,0,0,1,1.841.533,1.364,1.364,0,0,1-.53,1.851c-1.93,1.073-3.858,2.233-5.733,3.442A1.338,1.338,0,0,1,72.633,43.809Zm112.982-.05a1.343,1.343,0,0,1-.73-.214c-1.879-1.208-3.812-2.367-5.747-3.443a1.361,1.361,0,0,1,1.313-2.384c1.982,1.1,3.967,2.291,5.894,3.532a1.364,1.364,0,0,1,.409,1.881A1.344,1.344,0,0,1,185.615,43.759ZM88.173,35.544a1.348,1.348,0,0,1-1.244-.828,1.363,1.363,0,0,1,.714-1.787c2.085-.892,4.232-1.729,6.386-2.489a1.348,1.348,0,0,1,1.725.834,1.362,1.362,0,0,1-.828,1.737c-2.1.741-4.192,1.556-6.222,2.425A1.344,1.344,0,0,1,88.173,35.544Zm81.88-.041a1.339,1.339,0,0,1-.528-.108c-2.043-.873-4.145-1.688-6.247-2.425a1.362,1.362,0,0,1,.894-2.573c2.157.757,4.312,1.6,6.411,2.489a1.363,1.363,0,0,1-.53,2.617Zm-65.183-5.477a1.362,1.362,0,0,1-.31-2.686c2.207-.527,4.468-.99,6.72-1.374a1.363,1.363,0,0,1,.453,2.687c-2.191.373-4.4.823-6.547,1.336A1.319,1.319,0,0,1,104.869,30.026ZM153.325,30a1.451,1.451,0,0,1-.313-.035c-2.149-.511-4.351-.959-6.55-1.331a1.362,1.362,0,0,1,.45-2.687c2.257.384,4.518.843,6.722,1.365A1.363,1.363,0,0,1,153.325,30ZM122.265,27.4a1.362,1.362,0,0,1-.085-2.722c2.268-.148,4.576-.225,6.855-.227h.127c2.27,0,4.575.072,6.851.218a1.36,1.36,0,0,1,1.268,1.445,1.38,1.38,0,0,1-1.44,1.274c-2.218-.142-4.468-.212-6.679-.212h-.125c-2.224,0-4.47.076-6.683.222Z" transform="translate(4.349 -24.456)" fill="#cceaf3"/>
      <g id="Grupo_5039" data-name="Grupo 5039" transform="translate(58.25 45.965)">
        <g id="Grupo_643" data-name="Grupo 643" transform="translate(0.223 0.148)">
          <rect id="Rectángulo_205" data-name="Rectángulo 205" width="144.328" height="110.211" transform="translate(2.338 2.337)" fill="#f9f9f9"/>
          <path id="Trazado_642" data-name="Trazado 642" d="M196.168,174.812H51.841a2.335,2.335,0,0,1-2.339-2.335V62.266a2.336,2.336,0,0,1,2.339-2.337H196.168a2.337,2.337,0,0,1,2.339,2.337V172.477A2.336,2.336,0,0,1,196.168,174.812ZM54.181,170.134H193.83V64.608H54.181Z" transform="translate(-49.502 -59.929)" fill="#005296"/>
        </g>
        <g id="Grupo_644" data-name="Grupo 644">
          <rect id="Rectángulo_206" data-name="Rectángulo 206" width="144.329" height="24.635" transform="translate(3.628 2.338)" fill="#1786e2"/>
          <path id="Trazado_643" data-name="Trazado 643" d="M196.168,89.24H51.841A2.336,2.336,0,0,1,49.5,86.9V62.266a2.336,2.336,0,0,1,2.339-2.337H196.168a2.337,2.337,0,0,1,2.339,2.337V86.9A2.337,2.337,0,0,1,196.168,89.24ZM54.181,84.561H193.83V64.608H54.181Z" transform="translate(-49.502 -59.929)" fill="#005296"/>
        </g>
        <g id="Grupo_645" data-name="Grupo 645" transform="translate(14.093 11.172)">
          <path id="Trazado_644" data-name="Trazado 644" d="M66.868,71.661a3.5,3.5,0,1,1-3.5-3.5A3.5,3.5,0,0,1,66.868,71.661Z" transform="translate(-59.861 -68.161)" fill="#005296"/>
        </g>
        <g id="Grupo_646" data-name="Grupo 646" transform="translate(25.473 11.172)">
          <path id="Trazado_645" data-name="Trazado 645" d="M75.238,71.661a3.5,3.5,0,1,1-3.5-3.5A3.5,3.5,0,0,1,75.238,71.661Z" transform="translate(-68.233 -68.161)" fill="#005296"/>
        </g>
        <g id="Grupo_647" data-name="Grupo 647" transform="translate(36.855 11.172)">
          <path id="Trazado_646" data-name="Trazado 646" d="M83.614,71.661a3.5,3.5,0,1,1-3.507-3.5A3.5,3.5,0,0,1,83.614,71.661Z" transform="translate(-76.606 -68.161)" fill="#005296"/>
        </g>
        <g id="Grupo_4209" data-name="Grupo 4209" transform="translate(36.286 41.366)">
          <g id="Grupo_4208" data-name="Grupo 4208" transform="translate(0 0)">
            <path id="Trazado_1323" data-name="Trazado 1323" d="M24.265-27.394A13.864,13.864,0,0,0,38.13-41.26,13.864,13.864,0,0,0,24.265-55.125,13.864,13.864,0,0,0,10.4-41.26,13.864,13.864,0,0,0,24.265-27.394Zm9.706,3.466H32.161a18.877,18.877,0,0,1-7.9,1.733,18.915,18.915,0,0,1-7.9-1.733H14.559A14.563,14.563,0,0,0,0-9.369v4.506A5.2,5.2,0,0,0,5.2.337H43.33a5.2,5.2,0,0,0,5.2-5.2V-9.369A14.563,14.563,0,0,0,33.97-23.928Z" transform="translate(0 55.125)" fill="#004f91"/>
            <g id="Grupo_4207" data-name="Grupo 4207" transform="translate(42.79 12.253)">
              <path id="Trazado_1114" data-name="Trazado 1114" d="M30.376-52.8H28.553V-58.89c0-7.09-5.179-12.86-11.543-12.86S5.468-65.98,5.468-58.89V-52.8H3.645A3.871,3.871,0,0,0,0-48.737v16.244a3.871,3.871,0,0,0,3.645,4.061H30.376a3.871,3.871,0,0,0,3.645-4.061V-48.737A3.871,3.871,0,0,0,30.376-52.8Zm-7.9,0H11.543V-58.89c0-3.359,2.453-6.092,5.468-6.092s5.468,2.733,5.468,6.092Z" transform="translate(0 71.75)" fill="#004f91" stroke="#fff" stroke-width="1"/>
              <ellipse id="Elipse_32" data-name="Elipse 32" cx="2.377" cy="2.641" rx="2.377" ry="2.641" transform="translate(14.792 25.357)" fill="#f9f9f9"/>
            </g>
          </g>
        </g>
      </g>
    </g>
    <g id="Grupo_664" data-name="Grupo 664" transform="translate(916.572 331.684)">
      <g id="Grupo_657" data-name="Grupo 657" transform="translate(0 0)">
        <path id="Trazado_664" data-name="Trazado 664" d="M178.794,141.111a27.055,27.055,0,1,1-27.055-27.056A27.055,27.055,0,0,1,178.794,141.111Z" transform="translate(-122.01 -111.38)" fill="#fff"/>
        <path id="Trazado_665" data-name="Trazado 665" d="M152.414,171.515a29.73,29.73,0,1,1,29.731-29.728A29.762,29.762,0,0,1,152.414,171.515Zm0-54.109a24.379,24.379,0,1,0,24.38,24.381A24.407,24.407,0,0,0,152.414,117.406Z" transform="translate(-122.685 -112.055)" fill="#f44336"/>
      </g>
      <path id="Trazado_666" data-name="Trazado 666" d="M157.173,149.22a2.67,2.67,0,0,1-1.891-.784l-18.5-18.5a2.675,2.675,0,0,1,3.783-3.783l18.505,18.5a2.675,2.675,0,0,1-1.891,4.567Z" transform="translate(-118.191 -107.562)" fill="#f44336"/>
      <path id="Trazado_667" data-name="Trazado 667" d="M138.668,149.22a2.675,2.675,0,0,1-1.891-4.567l18.5-18.5a2.675,2.675,0,0,1,3.783,3.783l-18.505,18.5A2.668,2.668,0,0,1,138.668,149.22Z" transform="translate(-118.191 -107.562)" fill="#f44336"/>
    </g>
  </g>
</svg>
