<svg xmlns="http://www.w3.org/2000/svg" width="407.071" height="300.47" viewBox="0 0 407.071 300.47">
  <g id="Grupo_3716" data-name="Grupo 3716" transform="translate(-756 -258)">
    <g id="Grupo_672" data-name="Grupo 672" transform="translate(437 26.744)">
      <g id="Grupo_495" data-name="Grupo 495" transform="translate(319 231.256)">
        <g id="Grupo_487" data-name="Grupo 487" transform="translate(0 21.709)">
          <path id="Trazado_494" data-name="Trazado 494" d="M322.808,224.732H291.067A19.19,19.19,0,0,1,271.444,206V201.78a19.19,19.19,0,0,1,19.623-18.725h67.911A19.194,19.194,0,0,0,378.6,164.326V160.1a19.2,19.2,0,0,0-19.623-18.729H319.832C309.417,81.533,254.959,35.9,189.3,35.9a135.617,135.617,0,0,0-81.871,27.172H53.1A19.189,19.189,0,0,0,33.472,81.8v4.222A19.19,19.19,0,0,0,53.1,104.752H80.077A19.188,19.188,0,0,1,99.7,123.477V127.7a19.192,19.192,0,0,1-19.623,18.725H21.835A20.864,20.864,0,0,0,19.778,188.1a19.669,19.669,0,0,0,2.057,0h37.9C72.253,245.446,125.5,288.526,189.3,288.526a136.094,136.094,0,0,0,74.8-22.118H322.8a19.192,19.192,0,0,0,19.627-18.727v-4.224A19.194,19.194,0,0,0,322.808,224.732Z" transform="translate(0 -35.902)" fill="#e8e8e8"/>
          <path id="Rectángulo_95" data-name="Rectángulo 95" d="M209.973,140.21h9.434a18.155,18.155,0,0,1,18.153,18.155h0a18.153,18.153,0,0,1-18.153,18.151h-9.434a18.154,18.154,0,0,1-18.155-18.151h0A18.156,18.156,0,0,1,209.973,140.21Z" transform="translate(169.511 56.844)" fill="#e8e8e8"/>
        </g>
        <path id="Elipse_28" data-name="Elipse 28" d="M169.536,117.318A5.682,5.682,0,1,1,163.853,123,5.684,5.684,0,0,1,169.536,117.318Z" transform="translate(144.875 58.199)" fill="#b6cddd"/>
        <path id="Trazado_618" data-name="Trazado 618" d="M52.546,46.007a10.8,10.8,0,1,1,10.8-10.8A10.811,10.811,0,0,1,52.546,46.007Zm0-14.04a3.242,3.242,0,1,0,3.242,3.242A3.246,3.246,0,0,0,52.546,31.967Z" transform="translate(36.907 -24.41)" fill="#b6cddd"/>
        <path id="Trazado_497" data-name="Trazado 497" d="M167.919,173.716c0-1.29-2.38-2.377-5.7-2.775-.4-3.314-1.49-5.7-2.775-5.7s-2.373,2.384-2.775,5.7c-3.314.4-5.7,1.487-5.7,2.775s2.382,2.373,5.7,2.771c.4,3.317,1.491,5.7,2.775,5.7s2.377-2.382,2.775-5.7C165.533,176.089,167.919,175,167.919,173.716Z" transform="translate(133.48 100.811)" fill="#b6cddd"/>
        <path id="Trazado_498" data-name="Trazado 498" d="M52.54,176.324c-1.022-1.02-3.778,0-6.72,2.322-2.947-2.316-5.7-3.342-6.722-2.322s0,3.778,2.324,6.72c-2.316,2.947-3.342,5.7-2.324,6.72s3.778,0,6.722-2.318c2.943,2.312,5.7,3.338,6.72,2.318s0-3.778-2.32-6.72C52.533,180.1,53.558,177.342,52.54,176.324Z" transform="translate(34.219 110.312)" fill="#b6cddd"/>
        <path id="Trazado_499" data-name="Trazado 499" d="M145.246,53.76c-.945-.945-3.519,0-6.268,2.167-2.751-2.159-5.318-3.117-6.27-2.167s0,3.521,2.163,6.27c-2.156,2.749-3.111,5.316-2.163,6.268s3.52,0,6.27-2.163c2.749,2.156,5.32,3.111,6.268,2.163s0-3.523-2.167-6.268C145.238,57.281,146.2,54.71,145.246,53.76Z" transform="translate(117.006 1.36)" fill="#b6cddd"/>
      </g>
      <g id="Grupo_668" data-name="Grupo 668" transform="translate(-437 -21.744)">
        <path id="Trazado_619" data-name="Trazado 619" d="M163.546,320.232c-.032,0-.066,0-.1,0-3.172-.159-6.378-.425-9.531-.788a1.888,1.888,0,0,1,.433-3.752c3.07.351,6.195.61,9.287.765a1.889,1.889,0,0,1-.093,3.776Zm15.1-.013a1.889,1.889,0,0,1-.091-3.776c3.079-.155,6.2-.417,9.283-.775a1.888,1.888,0,0,1,.435,3.752c-3.159.368-6.365.637-9.527.8C178.712,320.218,178.678,320.218,178.644,320.218Zm-39.4-3.261a1.953,1.953,0,0,1-.414-.045c-3.1-.688-6.213-1.487-9.261-2.375a1.889,1.889,0,1,1,1.054-3.627c2.972.865,6.007,1.644,9.026,2.312a1.89,1.89,0,0,1-.406,3.735Zm63.7-.043a1.888,1.888,0,0,1-.41-3.731c3.015-.674,6.051-1.457,9.021-2.326a1.889,1.889,0,1,1,1.06,3.627c-3.047.892-6.162,1.693-9.259,2.384A1.939,1.939,0,0,1,202.942,316.914Zm-87.108-7.271a1.88,1.88,0,0,1-.716-.14c-2.943-1.2-5.885-2.516-8.743-3.9a1.89,1.89,0,0,1,1.657-3.4c2.781,1.354,5.645,2.635,8.514,3.807a1.888,1.888,0,0,1-.712,3.637Zm110.5-.07a1.889,1.889,0,0,1-.714-3.637c2.862-1.173,5.722-2.452,8.494-3.8a1.889,1.889,0,1,1,1.657,3.395c-2.845,1.389-5.779,2.7-8.72,3.907A1.866,1.866,0,0,1,226.337,309.573ZM93.976,298.49a1.9,1.9,0,0,1-1-.283c-2.709-1.685-5.386-3.472-7.961-5.314a1.89,1.89,0,1,1,2.2-3.074c2.507,1.8,5.118,3.536,7.757,5.178a1.888,1.888,0,0,1-1,3.493Zm154.182-.085a1.888,1.888,0,0,1-1-3.491c2.613-1.628,5.218-3.37,7.738-5.178a1.889,1.889,0,1,1,2.2,3.07c-2.586,1.857-5.261,3.644-7.944,5.314A1.889,1.889,0,0,1,248.159,298.4ZM74.3,283.837a1.885,1.885,0,0,1-1.251-.474c-2.375-2.1-4.715-4.3-6.962-6.559a1.889,1.889,0,0,1,2.679-2.664c2.188,2.2,4.472,4.349,6.784,6.393a1.889,1.889,0,0,1-1.251,3.3Zm193.5-.094a1.889,1.889,0,0,1-1.251-3.3c2.316-2.05,4.6-4.2,6.774-6.4a1.888,1.888,0,1,1,2.681,2.66c-2.235,2.254-4.574,4.464-6.95,6.569A1.9,1.9,0,0,1,267.8,283.743ZM57.346,266.121a1.887,1.887,0,0,1-1.472-.7c-2.008-2.482-3.95-5.048-5.769-7.625a1.889,1.889,0,0,1,3.085-2.18c1.774,2.511,3.665,5.01,5.622,7.428a1.889,1.889,0,0,1-1.466,3.077Zm227.4-.111a1.868,1.868,0,0,1-1.183-.419,1.894,1.894,0,0,1-.285-2.656c1.94-2.4,3.829-4.9,5.62-7.441a1.89,1.89,0,0,1,3.089,2.178c-1.838,2.607-3.778,5.174-5.768,7.636A1.884,1.884,0,0,1,284.742,266.009ZM43.576,245.832a1.89,1.89,0,0,1-1.649-.964c-1.553-2.762-3.036-5.613-4.409-8.475a1.889,1.889,0,0,1,3.406-1.634c1.338,2.786,2.785,5.565,4.3,8.257a1.889,1.889,0,0,1-1.647,2.815ZM298.5,245.7a1.888,1.888,0,0,1-1.645-2.813c1.511-2.7,2.958-5.486,4.294-8.28a1.89,1.89,0,1,1,3.41,1.63c-1.373,2.87-2.856,5.728-4.409,8.5A1.892,1.892,0,0,1,298.5,245.7ZM33.4,223.528a1.889,1.889,0,0,1-1.78-1.252c-1.062-2.97-2.048-6.034-2.926-9.1a1.889,1.889,0,0,1,3.631-1.041c.858,2.992,1.817,5.977,2.853,8.873a1.886,1.886,0,0,1-1.778,2.524Zm275.256-.166a1.889,1.889,0,0,1-1.78-2.524c1.037-2.909,1.993-5.894,2.838-8.875A1.891,1.891,0,0,1,313.353,213c-.871,3.059-1.848,6.123-2.915,9.111A1.891,1.891,0,0,1,308.657,223.362ZM27.121,199.823a1.892,1.892,0,0,1-1.859-1.562c-.55-3.134-1.005-6.319-1.351-9.465a1.889,1.889,0,1,1,3.756-.414c.336,3.066.78,6.17,1.319,9.225a1.892,1.892,0,0,1-1.536,2.188A1.93,1.93,0,0,1,27.121,199.823Zm287.788-.176a1.983,1.983,0,0,1-.329-.028,1.887,1.887,0,0,1-1.534-2.186c.531-3.064.971-6.168,1.3-9.225a1.89,1.89,0,1,1,3.758.406c-.34,3.138-.79,6.323-1.336,9.468A1.9,1.9,0,0,1,314.91,199.648Zm-290-24.243a1.89,1.89,0,0,1-1.889-1.88l0-1.086c0-2.821.081-5.667.238-8.469a1.889,1.889,0,0,1,3.773.213c-.155,2.732-.232,5.507-.232,8.256l0,1.067a1.889,1.889,0,0,1-1.88,1.9Zm292.181-.178h-.011a1.887,1.887,0,0,1-1.878-1.9v-.888c0-2.8-.081-5.635-.24-8.433a1.883,1.883,0,0,1,1.774-1.995,1.906,1.906,0,0,1,2,1.776c.166,2.872.248,5.783.248,8.652v.911A1.891,1.891,0,0,1,317.092,175.227ZM26.77,150.953a1.786,1.786,0,0,1-.3-.023,1.889,1.889,0,0,1-1.566-2.165c.5-3.136,1.116-6.295,1.823-9.387a1.889,1.889,0,0,1,3.684.841c-.69,3.015-1.287,6.091-1.778,9.145A1.888,1.888,0,0,1,26.77,150.953Zm288.429-.179a1.889,1.889,0,0,1-1.865-1.589c-.491-3.045-1.092-6.121-1.785-9.142a1.889,1.889,0,1,1,3.682-.844c.712,3.1,1.328,6.257,1.834,9.385a1.889,1.889,0,0,1-1.564,2.165A1.86,1.86,0,0,1,315.2,150.774ZM32.692,127.157a1.863,1.863,0,0,1-.61-.1,1.887,1.887,0,0,1-1.179-2.4c1.031-3.028,2.171-6.043,3.387-8.966a1.889,1.889,0,1,1,3.487,1.455c-1.184,2.845-2.293,5.781-3.3,8.728A1.89,1.89,0,0,1,32.692,127.157Zm276.557-.172a1.891,1.891,0,0,1-1.789-1.277c-1-2.928-2.11-5.853-3.295-8.7a1.888,1.888,0,1,1,3.486-1.455c1.215,2.921,2.356,5.924,3.387,8.928a1.89,1.89,0,0,1-1.177,2.4A1.917,1.917,0,0,1,309.25,126.985ZM42.544,104.68a1.888,1.888,0,0,1-1.659-2.79c1.519-2.8,3.147-5.573,4.84-8.257a1.888,1.888,0,1,1,3.195,2.014c-1.649,2.616-3.234,5.324-4.715,8.048A1.885,1.885,0,0,1,42.544,104.68Zm256.842-.125a1.884,1.884,0,0,1-1.659-.986c-1.477-2.709-3.064-5.41-4.721-8.029a1.89,1.89,0,0,1,3.2-2.018c1.7,2.688,3.325,5.46,4.84,8.239a1.89,1.89,0,0,1-1.657,2.794ZM56.025,84.183a1.889,1.889,0,0,1-1.483-3.057c1.957-2.492,4.024-4.957,6.145-7.328A1.888,1.888,0,0,1,63.5,76.315c-2.067,2.312-4.082,4.717-5.99,7.147A1.883,1.883,0,0,1,56.025,84.183Zm229.873-.1a1.883,1.883,0,0,1-1.487-.722c-1.912-2.429-3.926-4.829-5.992-7.135a1.889,1.889,0,0,1,2.815-2.52c2.118,2.365,4.184,4.827,6.147,7.32a1.889,1.889,0,0,1-1.483,3.057ZM72.733,66.223a1.889,1.889,0,0,1-1.271-3.287c2.343-2.131,4.791-4.218,7.277-6.2A1.889,1.889,0,0,1,81.1,59.687c-2.422,1.933-4.808,3.969-7.092,6.045A1.888,1.888,0,0,1,72.733,66.223Zm196.446-.079a1.883,1.883,0,0,1-1.27-.491c-2.3-2.086-4.685-4.118-7.1-6.041a1.89,1.89,0,1,1,2.354-2.957c2.475,1.974,4.925,4.062,7.283,6.2a1.889,1.889,0,0,1-1.27,3.287ZM92.189,51.3a1.889,1.889,0,0,1-1.022-3.48c2.683-1.721,5.445-3.37,8.2-4.9a1.889,1.889,0,1,1,1.831,3.306c-2.69,1.489-5.378,3.1-7.993,4.774A1.872,1.872,0,0,1,92.189,51.3Zm157.517-.07a1.879,1.879,0,0,1-1.018-.3c-2.62-1.676-5.314-3.283-8.012-4.776a1.889,1.889,0,0,1,1.831-3.306c2.764,1.53,5.531,3.178,8.218,4.9a1.89,1.89,0,0,1-1.018,3.48ZM113.854,39.834a1.89,1.89,0,0,1-.739-3.627c2.907-1.237,5.9-2.4,8.9-3.451a1.889,1.889,0,0,1,1.251,3.565c-2.926,1.028-5.845,2.157-8.675,3.363A1.882,1.882,0,0,1,113.854,39.834Zm114.155-.057a1.875,1.875,0,0,1-.737-.149c-2.849-1.211-5.779-2.341-8.709-3.363A1.89,1.89,0,0,1,219.81,32.7c3.008,1.05,6.011,2.212,8.938,3.451a1.889,1.889,0,0,1-.739,3.629Zm-90.877-7.6a1.888,1.888,0,0,1-.433-3.725c3.077-.731,6.229-1.373,9.368-1.906a1.89,1.89,0,1,1,.631,3.727c-3.055.518-6.128,1.141-9.128,1.853A1.849,1.849,0,0,1,137.132,32.181Zm67.556-.042a2.034,2.034,0,0,1-.436-.049c-3-.708-6.066-1.33-9.132-1.846a1.89,1.89,0,0,1,.627-3.727c3.147.533,6.3,1.169,9.372,1.893a1.89,1.89,0,0,1-.431,3.729Zm-43.3-3.593a1.889,1.889,0,0,1-.119-3.775c3.162-.206,6.38-.312,9.557-.315h0c.062,0,.121,0,.178,0,3.164,0,6.378.1,9.552.3a1.89,1.89,0,0,1,1.768,2,1.921,1.921,0,0,1-2.008,1.766c-3.093-.2-6.229-.295-9.312-.295l-.174,0c-3.1,0-6.232.106-9.317.308C161.47,28.544,161.424,28.546,161.385,28.546Z" transform="translate(776.468 228.631)" fill="#cceaf3"/>
      </g>
    </g>
    <g id="Grupo_669" data-name="Grupo 669" transform="translate(14.994 -34.325)">
      <g id="Grupo_643" data-name="Grupo 643" transform="translate(848.459 323.789)">
        <rect id="Rectángulo_205" data-name="Rectángulo 205" width="172.029" height="131.364" transform="translate(2.787 2.786)" fill="#fff"/>
        <path id="Trazado_642" data-name="Trazado 642" d="M224.318,196.862H52.29a2.783,2.783,0,0,1-2.788-2.783V62.715a2.785,2.785,0,0,1,2.788-2.786H224.318a2.786,2.786,0,0,1,2.788,2.786V194.079A2.784,2.784,0,0,1,224.318,196.862ZM55.079,191.286H221.531V65.506H55.079Z" transform="translate(-49.502 -59.929)" fill="#005296"/>
      </g>
      <g id="Grupo_644" data-name="Grupo 644" transform="translate(848.459 323.613)">
        <rect id="Rectángulo_206" data-name="Rectángulo 206" width="172.03" height="29.364" transform="translate(4.325 2.787)" fill="#1786e2"/>
        <path id="Trazado_643" data-name="Trazado 643" d="M224.318,94.865H52.29A2.784,2.784,0,0,1,49.5,92.077V62.715a2.785,2.785,0,0,1,2.788-2.786H224.318a2.786,2.786,0,0,1,2.788,2.786V92.077A2.785,2.785,0,0,1,224.318,94.865ZM55.079,89.288H221.531V65.506H55.079Z" transform="translate(-49.502 -59.929)" fill="#005296"/>
      </g>
      <g id="Grupo_645" data-name="Grupo 645" transform="translate(864.99 336.929)">
        <path id="Trazado_644" data-name="Trazado 644" d="M68.213,72.333a4.176,4.176,0,1,1-4.175-4.172A4.173,4.173,0,0,1,68.213,72.333Z" transform="translate(-59.861 -68.161)" fill="#005296"/>
      </g>
      <g id="Grupo_646" data-name="Grupo 646" transform="translate(878.555 336.929)">
        <path id="Trazado_645" data-name="Trazado 645" d="M76.583,72.333a4.175,4.175,0,1,1-4.172-4.172A4.171,4.171,0,0,1,76.583,72.333Z" transform="translate(-68.233 -68.161)" fill="#005296"/>
      </g>
      <g id="Grupo_647" data-name="Grupo 647" transform="translate(892.122 336.929)">
        <path id="Trazado_646" data-name="Trazado 646" d="M84.959,72.333a4.177,4.177,0,1,1-4.18-4.172A4.175,4.175,0,0,1,84.959,72.333Z" transform="translate(-76.606 -68.161)" fill="#005296"/>
      </g>
      <rect id="Rectángulo_207" data-name="Rectángulo 207" width="76.564" height="70.678" transform="translate(867.099 370.974)" fill="#e8e8e8"/>
      <rect id="Rectángulo_208" data-name="Rectángulo 208" width="55.066" height="11.956" transform="translate(949.767 370.862)" fill="#e8e8e8"/>
      <rect id="Rectángulo_209" data-name="Rectángulo 209" width="55.066" height="3.389" transform="translate(949.767 386.955)" fill="#e8e8e8"/>
      <rect id="Rectángulo_210" data-name="Rectángulo 210" width="55.066" height="3.389" transform="translate(949.767 393.955)" fill="#e8e8e8"/>
      <rect id="Rectángulo_211" data-name="Rectángulo 211" width="55.066" height="3.389" transform="translate(949.767 400.955)" fill="#e8e8e8"/>
    </g>
    <g id="Grupo_670" data-name="Grupo 670" transform="translate(-23.459 19.425)">
      <g id="Grupo_643-2" data-name="Grupo 643" transform="translate(848.459 323.809)">
        <rect id="Rectángulo_205-2" data-name="Rectángulo 205" width="191.186" height="145.992" transform="translate(3.097 3.096)" fill="#fff"/>
        <path id="Trazado_642-2" data-name="Trazado 642" d="M243.785,212.109H52.6a3.093,3.093,0,0,1-3.1-3.093V63.025a3.1,3.1,0,0,1,3.1-3.1H243.785a3.1,3.1,0,0,1,3.1,3.1V209.017A3.094,3.094,0,0,1,243.785,212.109ZM55.7,205.913H240.687V66.127H55.7Z" transform="translate(-49.502 -59.929)" fill="#005296"/>
      </g>
      <g id="Grupo_644-2" data-name="Grupo 644" transform="translate(848.459 323.613)">
        <rect id="Rectángulo_206-2" data-name="Rectángulo 206" width="191.186" height="32.633" transform="translate(4.806 3.098)" fill="#1786e2"/>
        <path id="Trazado_643-2" data-name="Trazado 643" d="M243.785,98.755H52.6a3.094,3.094,0,0,1-3.1-3.1V63.025a3.1,3.1,0,0,1,3.1-3.1H243.785a3.1,3.1,0,0,1,3.1,3.1V95.657A3.1,3.1,0,0,1,243.785,98.755ZM55.7,92.557H240.687V66.127H55.7Z" transform="translate(-49.502 -59.929)" fill="#005296"/>
      </g>
      <g id="Grupo_645-2" data-name="Grupo 645" transform="translate(866.831 338.412)">
        <path id="Trazado_644-2" data-name="Trazado 644" d="M69.143,72.8a4.641,4.641,0,1,1-4.64-4.636A4.638,4.638,0,0,1,69.143,72.8Z" transform="translate(-59.861 -68.161)" fill="#005296"/>
      </g>
      <g id="Grupo_646-2" data-name="Grupo 646" transform="translate(881.906 338.412)">
        <path id="Trazado_645-2" data-name="Trazado 645" d="M77.513,72.8a4.64,4.64,0,1,1-4.636-4.636A4.635,4.635,0,0,1,77.513,72.8Z" transform="translate(-68.233 -68.161)" fill="#005296"/>
      </g>
      <g id="Grupo_647-2" data-name="Grupo 647" transform="translate(896.984 338.412)">
        <path id="Trazado_646-2" data-name="Trazado 646" d="M85.889,72.8a4.642,4.642,0,1,1-4.645-4.636A4.64,4.64,0,0,1,85.889,72.8Z" transform="translate(-76.606 -68.161)" fill="#005296"/>
      </g>
      <rect id="Rectángulo_207-2" data-name="Rectángulo 207" width="85.09" height="78.548" transform="translate(869.174 376.248)" fill="#e8e8e8"/>
      <rect id="Rectángulo_208-2" data-name="Rectángulo 208" width="61.198" height="13.287" transform="translate(961.048 376.124)" fill="#e8e8e8"/>
      <rect id="Rectángulo_209-2" data-name="Rectángulo 209" width="61.198" height="3.767" transform="translate(961.048 394.008)" fill="#e8e8e8"/>
      <rect id="Rectángulo_210-2" data-name="Rectángulo 210" width="61.198" height="3.767" transform="translate(961.048 401.788)" fill="#e8e8e8"/>
      <rect id="Rectángulo_211-2" data-name="Rectángulo 211" width="61.198" height="3.767" transform="translate(961.048 409.567)" fill="#e8e8e8"/>
    </g>
    <g id="Grupo_664" data-name="Grupo 664" transform="translate(996.946 449.358)">
      <g id="Grupo_657" data-name="Grupo 657">
        <path id="Trazado_664" data-name="Trazado 664" d="M181.207,142.318a28.261,28.261,0,1,1-28.262-28.263A28.261,28.261,0,0,1,181.207,142.318Z" transform="translate(-121.89 -111.26)" fill="#fff"/>
        <path id="Trazado_665" data-name="Trazado 665" d="M153.74,174.166A31.056,31.056,0,1,1,184.8,143.113,31.089,31.089,0,0,1,153.74,174.166Zm0-56.522a25.466,25.466,0,1,0,25.467,25.469A25.5,25.5,0,0,0,153.74,117.644Z" transform="translate(-122.685 -112.055)" fill="#f44336"/>
      </g>
      <path id="Trazado_666" data-name="Trazado 666" d="M158.118,150.284a2.789,2.789,0,0,1-1.976-.819l-19.33-19.33a2.794,2.794,0,1,1,3.952-3.952l19.33,19.33a2.795,2.795,0,0,1-1.976,4.77Z" transform="translate(-117.398 -106.768)" fill="#f44336"/>
      <path id="Trazado_667" data-name="Trazado 667" d="M138.787,150.284a2.795,2.795,0,0,1-1.976-4.77l19.33-19.33a2.794,2.794,0,1,1,3.952,3.952l-19.33,19.33A2.787,2.787,0,0,1,138.787,150.284Z" transform="translate(-117.398 -106.768)" fill="#f44336"/>
    </g>
    <g id="Grupo_675" data-name="Grupo 675" transform="translate(-357.49 113.111)">
      <g id="Grupo_634" data-name="Grupo 634" transform="translate(1356.423 338.356)">
        <path id="Trazado_625" data-name="Trazado 625" d="M133.922,110.318a27.58,27.58,0,1,1-27.579-27.58A27.579,27.579,0,0,1,133.922,110.318Z" transform="translate(-77.541 -81.517)" fill="#fff" stroke="#f44336" stroke-width="3"/>
        <path id="Trazado_626" data-name="Trazado 626" d="M106.563,139.338a28.8,28.8,0,1,1,28.8-28.8A28.833,28.833,0,0,1,106.563,139.338Zm0-55.158a26.358,26.358,0,1,0,26.358,26.359A26.389,26.389,0,0,0,106.563,84.18Z" transform="translate(-77.762 -81.738)" fill="#f44336" stroke="#f44336" stroke-width="3"/>
      </g>
      <path id="Trazado_628" data-name="Trazado 628" d="M95.633,137.755a4.544,4.544,0,0,1-3.17-1.273,4.25,4.25,0,0,1,0-6.144l34.675-33.6c1.749-1.7,6.341,0,6.341,0s1.751,4.447,0,6.144l-34.673,33.6A4.546,4.546,0,0,1,95.633,137.755Z" transform="translate(1272.347 250.319)" fill="#f44336"/>
    </g>
  </g>
</svg>
