<svg xmlns="http://www.w3.org/2000/svg" width="116.821" height="15.795" viewBox="0 0 116.821 15.795"><path d="M8.667,17.593l-.983-2.936a.251.251,0,0,0-.239-.168h-4.2a.251.251,0,0,0-.239.168l-.983,2.936a.251.251,0,0,1-.239.168H.253a.254.254,0,0,1-.2-.1.24.24,0,0,1-.035-.221L3.774,6.557a.25.25,0,0,1,.238-.167H6.7a.25.25,0,0,1,.238.167l3.76,10.881a.24.24,0,0,1-.035.221.254.254,0,0,1-.2.1H8.905a.251.251,0,0,1-.239-.168m-4.71-4.748H6.726a.254.254,0,0,0,.2-.1.24.24,0,0,0,.036-.22L5.577,8.393a.254.254,0,0,0-.479,0l-1.382,4.13a.24.24,0,0,0,.036.22.254.254,0,0,0,.2.1" transform="translate(-0.001 -5.494)" fill="#221e20"/><path d="M83.5,27.1h1.234a.25.25,0,0,1,.249.21l.128.88h.109a2.424,2.424,0,0,1,1-.892,3.09,3.09,0,0,1,1.357-.3,4.58,4.58,0,0,1,.465.025.249.249,0,0,1,.222.247V28.6a.24.24,0,0,1-.08.181.253.253,0,0,1-.192.063c-.154-.014-.331-.021-.533-.021a3.141,3.141,0,0,0-1.211.247,2.191,2.191,0,0,0-.875.629.241.241,0,0,0-.055.157v5.376a.241.241,0,0,1-.074.173.254.254,0,0,1-.178.071H83.5a.254.254,0,0,1-.178-.071.241.241,0,0,1-.074-.173V27.344A.249.249,0,0,1,83.5,27.1" transform="translate(-71.267 -23.214)" fill="#221e20"/><path d="M123.939,38.747a9.252,9.252,0,0,1-1.166-.216.248.248,0,0,1-.187-.24V37.2a.243.243,0,0,1,.1-.193.257.257,0,0,1,.218-.042,9.484,9.484,0,0,0,2.294.3,3.958,3.958,0,0,0,1.439-.219,1.545,1.545,0,0,0,.816-.7,2.651,2.651,0,0,0,.265-1.276v-.662h-.1a2.775,2.775,0,0,1-.982.7,3.231,3.231,0,0,1-1.306.252,3.275,3.275,0,0,1-1.673-.435,3.054,3.054,0,0,1-1.2-1.351A5.127,5.127,0,0,1,122,31.283a4.435,4.435,0,0,1,1.183-3.349A4.917,4.917,0,0,1,126.7,26.79a11.522,11.522,0,0,1,1.6.115,9.312,9.312,0,0,1,1.3.268.246.246,0,0,1,.177.236v7.3a5.01,5.01,0,0,1-.485,2.362,2.931,2.931,0,0,1-1.462,1.336,6.324,6.324,0,0,1-2.484.421,11.731,11.731,0,0,1-1.408-.088m3.04-5.193a1.876,1.876,0,0,0,.668-.433.246.246,0,0,0,.069-.174V28.676a.251.251,0,0,0-.206-.245,5.5,5.5,0,0,0-.977-.088A2.381,2.381,0,0,0,124.7,29a3.023,3.023,0,0,0-.61,2.1,3.1,3.1,0,0,0,.512,2.024,1.844,1.844,0,0,0,1.468.587,2.5,2.5,0,0,0,.911-.168" transform="translate(-104.439 -23.034)" fill="#221e20"/><path d="M194.555,31.737h-4.8a.258.258,0,0,0-.189.086.244.244,0,0,0-.06.195,2.582,2.582,0,0,0,.288,1.018,1.573,1.573,0,0,0,.851.7,4.527,4.527,0,0,0,1.539.214,8.857,8.857,0,0,0,1.853-.222.257.257,0,0,1,.213.046.243.243,0,0,1,.1.191v1.025a.25.25,0,0,1-.2.241,10.261,10.261,0,0,1-2.248.254,6.106,6.106,0,0,1-2.529-.453,3.039,3.039,0,0,1-1.48-1.41,5.472,5.472,0,0,1-.488-2.486,5.645,5.645,0,0,1,.449-2.375,3.156,3.156,0,0,1,1.3-1.455,4.082,4.082,0,0,1,2.058-.488,3.277,3.277,0,0,1,2.673,1.1,5.073,5.073,0,0,1,.931,3.268v.3a.249.249,0,0,1-.252.245m-4.622-3.055a2.848,2.848,0,0,0-.448,1.6.242.242,0,0,0,.07.18.255.255,0,0,0,.182.075h2.879a.255.255,0,0,0,.182-.075.242.242,0,0,0,.07-.18,2.926,2.926,0,0,0-.432-1.6,1.418,1.418,0,0,0-1.235-.552,1.572,1.572,0,0,0-1.268.552" transform="translate(-160.425 -23.058)" fill="#221e20"/><path d="M249.792,26.9h1.245a.248.248,0,0,1,.248.207l.109.676h.109a3.317,3.317,0,0,1,1.152-.754,3.881,3.881,0,0,1,1.424-.261,2.862,2.862,0,0,1,2.106.765,3.285,3.285,0,0,1,.774,2.415v5.089a.241.241,0,0,1-.074.173.254.254,0,0,1-.178.071h-1.559a.254.254,0,0,1-.178-.071.241.241,0,0,1-.074-.173V30.067a1.622,1.622,0,0,0-.363-1.193,1.451,1.451,0,0,0-1.057-.357,2.631,2.631,0,0,0-1.025.212,2.106,2.106,0,0,0-.785.561.244.244,0,0,0-.059.161v5.589a.241.241,0,0,1-.074.173.254.254,0,0,1-.178.071h-1.565a.254.254,0,0,1-.178-.071.241.241,0,0,1-.074-.173V27.147a.249.249,0,0,1,.252-.245" transform="translate(-213.621 -23.017)" fill="#221e20"/><path d="M314.57,16.395v1.122a.25.25,0,0,1-.2.243,6.71,6.71,0,0,1-1.3.126q-3.06,0-3.062-3V11.195a.249.249,0,0,0-.25-.245h-.98a.247.247,0,0,1-.25-.244V9.584a.241.241,0,0,1,.073-.173.254.254,0,0,1,.178-.072h1.008a.25.25,0,0,0,.249-.216l.311-2.557a.25.25,0,0,1,.249-.216h1.229a.254.254,0,0,1,.178.071.241.241,0,0,1,.074.173V9.1a.242.242,0,0,0,.079.173.256.256,0,0,0,.183.066h1.9a.254.254,0,0,1,.178.072.241.241,0,0,1,.073.173v1.122a.247.247,0,0,1-.251.244h-1.9a.249.249,0,0,0-.252.245v3.365a2.428,2.428,0,0,0,.161.981,1.008,1.008,0,0,0,.492.519,2.063,2.063,0,0,0,.875.157,4.5,4.5,0,0,0,.669-.059.255.255,0,0,1,.2.057.241.241,0,0,1,.087.186" transform="translate(-264.119 -5.46)" fill="#221e20"/><path d="M358.035,3.775a1.007,1.007,0,0,1-.328-.81,1.016,1.016,0,0,1,.328-.814,1.859,1.859,0,0,1,1.963,0,1.02,1.02,0,0,1,.327.815,1.009,1.009,0,0,1-.327.81,1.859,1.859,0,0,1-1.963,0m-.059,9.854V5.738a.249.249,0,0,1,.252-.245H359.8a.249.249,0,0,1,.25.245V13.63a.241.241,0,0,1-.073.173.254.254,0,0,1-.178.072h-1.573a.249.249,0,0,1-.252-.245" transform="translate(-306.216 -1.608)" fill="#221e20"/><path d="M388.5,26.9h1.245a.249.249,0,0,1,.248.207l.109.676h.109a3.317,3.317,0,0,1,1.152-.754,3.881,3.881,0,0,1,1.424-.261,2.861,2.861,0,0,1,2.106.765,3.285,3.285,0,0,1,.774,2.415v5.089a.241.241,0,0,1-.074.173.254.254,0,0,1-.178.071h-1.56a.254.254,0,0,1-.178-.071.241.241,0,0,1-.074-.173V30.067a1.622,1.622,0,0,0-.363-1.193,1.451,1.451,0,0,0-1.057-.357,2.631,2.631,0,0,0-1.025.212,2.107,2.107,0,0,0-.784.561.244.244,0,0,0-.059.161v5.589a.241.241,0,0,1-.074.173.254.254,0,0,1-.178.071H388.5a.254.254,0,0,1-.178-.071.241.241,0,0,1-.074-.173V27.147a.249.249,0,0,1,.252-.245" transform="translate(-332.364 -23.017)" fill="#221e20"/><path d="M455.861,27.1a2.284,2.284,0,0,1,1.212,1.049,4.145,4.145,0,0,1,.4,1.982v4.919a.241.241,0,0,1-.073.173.254.254,0,0,1-.178.072h-1.244a.25.25,0,0,1-.252-.212l-.108-.662h-.111a2.422,2.422,0,0,1-1,.757,3.466,3.466,0,0,1-1.353.258,3.387,3.387,0,0,1-1.46-.292,2.162,2.162,0,0,1-.943-.827,2.346,2.346,0,0,1-.328-1.262,2.15,2.15,0,0,1,.82-1.8,4.888,4.888,0,0,1,2.591-.777l1.609-.14v-.327a2.032,2.032,0,0,0-.209-1,1.157,1.157,0,0,0-.655-.519,3.766,3.766,0,0,0-1.195-.154,8.032,8.032,0,0,0-1.143.088,7.415,7.415,0,0,0-.864.174.257.257,0,0,1-.22-.04.243.243,0,0,1-.1-.195V27.327a.247.247,0,0,1,.186-.236,8.322,8.322,0,0,1,1.133-.219,10.785,10.785,0,0,1,1.369-.093,5.909,5.909,0,0,1,2.122.318m-1.188,6.742a2.039,2.039,0,0,0,.7-.463.253.253,0,0,0,.072-.175V31.789a.241.241,0,0,0-.081-.181.255.255,0,0,0-.192-.063l-1.137.1a2.224,2.224,0,0,0-1.188.38,1.033,1.033,0,0,0-.373.85,1.061,1.061,0,0,0,.335.841,1.451,1.451,0,0,0,.982.292,2.4,2.4,0,0,0,.887-.168" transform="translate(-385.589 -23.026)" fill="#221e20"/><path d="M526.8,35.544A3.5,3.5,0,0,1,526,33v-4.65a.426.426,0,0,1,.432-.421h2.047a.426.426,0,0,1,.432.421V32.8a1.238,1.238,0,0,0,.245.868.934.934,0,0,0,.71.258,1.846,1.846,0,0,0,.691-.14,1.439,1.439,0,0,0,.564-.388V28.351a.426.426,0,0,1,.432-.421H533.6a.426.426,0,0,1,.432.421v7.44a.426.426,0,0,1-.432.421h-1.963l-.194-.809h-.117a3.243,3.243,0,0,1-2.333.949,2.956,2.956,0,0,1-2.194-.81" transform="translate(-450.286 -24.014)" fill="#37bbed"/><path d="M593.86,27.552a.426.426,0,0,1,.432-.421h1.963l.194.807h.131a2.992,2.992,0,0,1,1.074-.7,3.737,3.737,0,0,1,1.36-.24,2.872,2.872,0,0,1,2.159.819,3.549,3.549,0,0,1,.8,2.546v4.626a.426.426,0,0,1-.432.421h-2.048a.426.426,0,0,1-.432-.421V30.543a1.2,1.2,0,0,0-.252-.865,1.011,1.011,0,0,0-.748-.252,1.887,1.887,0,0,0-.711.14,1.506,1.506,0,0,0-.576.388v5.036a.426.426,0,0,1-.432.421h-2.05a.426.426,0,0,1-.432-.421Z" transform="translate(-508.378 -23.213)" fill="#37bbed"/><path d="M660.252,2.915a1.322,1.322,0,0,1-.432-1.068,1.3,1.3,0,0,1,.432-1.06,2.589,2.589,0,0,1,2.659,0,1.307,1.307,0,0,1,.432,1.06,1.329,1.329,0,0,1-.432,1.068,2.02,2.02,0,0,1-1.326.366,2.037,2.037,0,0,1-1.333-.366m-.131,9.222V4.7a.426.426,0,0,1,.432-.421h2.057a.426.426,0,0,1,.432.421v7.437a.426.426,0,0,1-.432.421h-2.055a.426.426,0,0,1-.432-.421" transform="translate(-564.844 -0.361)" fill="#37bbed"/><path d="M693.533,11.916a3.1,3.1,0,0,1-1.27-1.363,5.066,5.066,0,0,1-.474-2.32A4.338,4.338,0,0,1,693,4.93a4.952,4.952,0,0,1,3.537-1.152c.233,0,.514.017.845.046V.421A.426.426,0,0,1,697.816,0h2.048a.426.426,0,0,1,.432.421V11.776a.426.426,0,0,1-.432.421h-2l-.179-.861h-.124a2.551,2.551,0,0,1-.937.743,2.969,2.969,0,0,1-1.3.269,3.653,3.653,0,0,1-1.8-.432m3.322-1.963a1.448,1.448,0,0,0,.53-.3V5.985a4.385,4.385,0,0,0-.836-.076,1.8,1.8,0,0,0-1.388.491,2.341,2.341,0,0,0-.449,1.615,2.466,2.466,0,0,0,.384,1.574,1.386,1.386,0,0,0,1.113.456,2.106,2.106,0,0,0,.648-.1" transform="translate(-592.212)" fill="#37bbed"/><path d="M763.9,27.346a2.454,2.454,0,0,1,1.326,1.152,4.6,4.6,0,0,1,.432,2.173v4.319a.426.426,0,0,1-.432.421h-1.955l-.2-.784h-.133a2.13,2.13,0,0,1-.915.714,3.274,3.274,0,0,1-1.262.23,3.453,3.453,0,0,1-1.52-.31,2.245,2.245,0,0,1-.972-.861,2.412,2.412,0,0,1-.333-1.274,2.228,2.228,0,0,1,.887-1.891,5.23,5.23,0,0,1,2.8-.782l1.193-.076a1.411,1.411,0,0,0-.2-.74,1.034,1.034,0,0,0-.576-.394,3.817,3.817,0,0,0-1.074-.119,8.83,8.83,0,0,0-1.144.083,7.84,7.84,0,0,0-1.166.241v-2.1a10.373,10.373,0,0,1,1.4-.257A12.342,12.342,0,0,1,761.515,27a6.7,6.7,0,0,1,2.385.35m-1.6,6.2a1.527,1.527,0,0,0,.513-.265V31.916l-.884.062a1.528,1.528,0,0,0-.864.259.747.747,0,0,0-.275.615.7.7,0,0,0,.245.576,1.081,1.081,0,0,0,.7.2,1.958,1.958,0,0,0,.566-.083" transform="translate(-648.836 -23.215)" fill="#37bbed"/></svg>