<svg xmlns="http://www.w3.org/2000/svg" viewBox="0 0 271 200"><path d="M215,139.84H193.86a12.77,12.77,0,0,1-13.07-12.45v-2.81a12.77,12.77,0,0,1,13.07-12.44H239.1a12.76,12.76,0,0,0,13.06-12.45v-2.8a12.77,12.77,0,0,0-13.07-12.45H213c-6.93-39.77-43.21-70.1-86.94-70.1A90.38,90.38,0,0,0,71.55,32.4H35.36A12.77,12.77,0,0,0,22.29,44.85v2.8A12.77,12.77,0,0,0,35.36,60.1h18A12.77,12.77,0,0,1,66.4,72.54v2.81A12.77,12.77,0,0,1,53.33,87.79H14.54a13.87,13.87,0,0,0-1.37,27.7c.46,0,.92,0,1.37,0H39.79c8.33,38.11,43.8,66.74,86.29,66.74a90.82,90.82,0,0,0,49.82-14.69H215a12.77,12.77,0,0,0,13.07-12.45v-2.81A12.77,12.77,0,0,0,215,139.84Z" style="fill:#fff;opacity:0.7"/><path d="M252.75,145.53H259a12,12,0,0,1,12,12h0a12,12,0,0,1-12,12h-6.23a12,12,0,0,1-12-12h0a12,12,0,0,1,12-12Z" style="fill:#e8e8e8"/><path d="M209.31,116.56a3.77,3.77,0,0,1,2.08.63A3.79,3.79,0,0,1,213,121a3.8,3.8,0,0,1-1,1.92,3.76,3.76,0,0,1-4.09.82,3.75,3.75,0,0,1-1.22-6.12,3.74,3.74,0,0,1,2.66-1.1Z" style="fill:#b6cddd"/><path d="M59.51,14.27a7.13,7.13,0,0,1-7-8.53,7.12,7.12,0,1,1,7,8.53Zm0-9.28a2.21,2.21,0,0,0-1.19.36,2.24,2.24,0,0,0-.79,1A2.15,2.15,0,0,0,58,8.65a2.1,2.1,0,0,0,1.1.58,2.08,2.08,0,0,0,1.23-.12,2.12,2.12,0,0,0,1-.79,2.08,2.08,0,0,0,.36-1.19A2.13,2.13,0,0,0,59.51,5Z" style="fill:#00000"/><path d="M200.6,182.36c0-.85-1.57-1.57-3.76-1.83-.26-2.19-1-3.76-1.83-3.76s-1.57,1.57-1.83,3.76c-2.19.26-3.77,1-3.77,1.83s1.58,1.57,3.77,1.83c.26,2.19,1,3.77,1.83,3.77s1.57-1.58,1.83-3.77C199,183.93,200.6,183.21,200.6,182.36Z" style="fill:#b6cddd"/><path d="M57.69,190.36c-.67-.67-2.5,0-4.43,1.53-1.95-1.52-3.77-2.2-4.44-1.53s0,2.5,1.53,4.44c-1.53,1.95-2.21,3.77-1.53,4.44s2.5,0,4.44-1.53c1.94,1.52,3.76,2.2,4.43,1.53s0-2.5-1.53-4.44C57.69,192.85,58.37,191,57.69,190.36Z" style="fill:#b6cddd"/><path d="M174.55,36.6c-.63-.62-2.33,0-4.14,1.43-1.82-1.42-3.52-2.05-4.15-1.43s0,2.33,1.43,4.15c-1.42,1.81-2.05,3.51-1.43,4.14s2.33,0,4.15-1.43c1.81,1.42,3.51,2,4.14,1.43s0-2.33-1.43-4.14C174.54,38.93,175.18,37.23,174.55,36.6Z" style="fill:#b6cddd"/><path d="M121.55,196.46h-.06c-2.1-.11-4.22-.29-6.3-.53a1.24,1.24,0,0,1-1.07-1.38,1.27,1.27,0,0,1,.45-.83,1.26,1.26,0,0,1,.91-.28c2,.24,4.09.4,6.13.51a1.22,1.22,0,0,1,.87.4,1.21,1.21,0,0,1,.34.88,1.31,1.31,0,0,1-.38.88,1.28,1.28,0,0,1-.89.35Zm10,0a1.36,1.36,0,0,1-.87-.36,1.28,1.28,0,0,1-.37-.87,1.25,1.25,0,0,1,1.18-1.28c2-.1,4.1-.28,6.14-.51a1.3,1.3,0,0,1,.48,0,1.24,1.24,0,0,1,.44.23,1.12,1.12,0,0,1,.31.37,1.24,1.24,0,0,1,.15.47,1.3,1.3,0,0,1,0,.48,1.4,1.4,0,0,1-.22.44,1.23,1.23,0,0,1-.37.31,1.14,1.14,0,0,1-.47.16c-2.08.24-4.2.42-6.29.53Zm-26-2.17a1.24,1.24,0,0,1-.27,0c-2-.45-4.1-1-6.12-1.57a1.3,1.3,0,0,1-.75-.61,1.3,1.3,0,0,1,.12-1.39,1.39,1.39,0,0,1,.37-.31,1.36,1.36,0,0,1,.47-.15,1.29,1.29,0,0,1,.48.05c2,.57,4,1.09,6,1.53a1.25,1.25,0,0,1,.74.49,1.23,1.23,0,0,1,.23.87,1.25,1.25,0,0,1-1.24,1.12Zm42.07,0a1.22,1.22,0,0,1-.83-.32,1.29,1.29,0,0,1-.41-.8,1.27,1.27,0,0,1,1-1.36c2-.44,4-1,6-1.54a1.22,1.22,0,0,1,1,.12,1.25,1.25,0,0,1,.59.74,1.26,1.26,0,0,1-.84,1.55c-2,.59-4.07,1.12-6.11,1.58a1.33,1.33,0,0,1-.28,0ZM90,189.42a1.27,1.27,0,0,1-.47-.09c-1.94-.8-3.89-1.67-5.77-2.59a1.28,1.28,0,0,1-.63-.72,1.3,1.3,0,0,1,.06-1,1.23,1.23,0,0,1,.71-.63,1.21,1.21,0,0,1,.95,0c1.84.9,3.73,1.75,5.62,2.53a1.28,1.28,0,0,1,.63.56,1.24,1.24,0,0,1-.3,1.56,1.25,1.25,0,0,1-.8.29Zm73,0a1.25,1.25,0,0,1-1.23-1,1.28,1.28,0,0,1,.75-1.4c1.9-.78,3.79-1.62,5.61-2.52a1.21,1.21,0,0,1,1-.06,1.18,1.18,0,0,1,.42.24,1.62,1.62,0,0,1,.3.39,1.28,1.28,0,0,1,0,1,1.24,1.24,0,0,1-.63.72c-1.88.92-3.82,1.8-5.76,2.59a1.1,1.1,0,0,1-.47.1ZM75.6,182a1.27,1.27,0,0,1-.66-.19c-1.79-1.12-3.56-2.31-5.26-3.53a1.28,1.28,0,0,1-.49-.81,1.26,1.26,0,0,1,.22-.92,1.24,1.24,0,0,1,.8-.51,1.21,1.21,0,0,1,.92.2c1.66,1.19,3.38,2.35,5.13,3.44a1.2,1.2,0,0,1,.5.61,1.26,1.26,0,0,1,0,.79,1.18,1.18,0,0,1-.45.66,1.28,1.28,0,0,1-.75.26ZM177.44,182a1.21,1.21,0,0,1-.61-.16,1.24,1.24,0,0,1-.45-.43,1.27,1.27,0,0,1,.4-1.73c1.73-1.08,3.45-2.24,5.11-3.43a1.32,1.32,0,0,1,.45-.21,1.11,1.11,0,0,1,.48,0,1.07,1.07,0,0,1,.46.17,1.1,1.1,0,0,1,.35.33,1.21,1.21,0,0,1,.22.94,1.23,1.23,0,0,1-.5.81c-1.71,1.24-3.48,2.42-5.25,3.53a1.18,1.18,0,0,1-.66.19ZM62.61,172.29a1.26,1.26,0,0,1-.83-.31c-1.57-1.4-3.12-2.86-4.6-4.36a1.28,1.28,0,0,1-.37-.89,1.26,1.26,0,0,1,.37-.88,1.38,1.38,0,0,1,.4-.28,1.36,1.36,0,0,1,.48-.09,1.28,1.28,0,0,1,.48.09,1.26,1.26,0,0,1,.4.28c1.45,1.46,3,2.89,4.48,4.24a1.26,1.26,0,0,1,.11,1.77,1.17,1.17,0,0,1-.92.43Zm127.81-.06a1.21,1.21,0,0,1-.93-.43,1.26,1.26,0,0,1,.11-1.77c1.53-1.36,3-2.79,4.47-4.24a1.15,1.15,0,0,1,.41-.28,1.18,1.18,0,0,1,1,0,1.22,1.22,0,0,1,.41.27,1.3,1.3,0,0,1,.37.88,1.22,1.22,0,0,1-.37.89c-1.47,1.5-3,3-4.59,4.36a1.23,1.23,0,0,1-.83.32Zm-139-11.7a1.3,1.3,0,0,1-.54-.13,1.27,1.27,0,0,1-.43-.34c-1.32-1.65-2.61-3.35-3.81-5.06a1.26,1.26,0,0,1,.3-1.75,1.22,1.22,0,0,1,.45-.2,1.11,1.11,0,0,1,.48,0,1.5,1.5,0,0,1,.46.17,1.61,1.61,0,0,1,.35.34c1.17,1.67,2.42,3.33,3.71,4.94a1.19,1.19,0,0,1,.27.91,1.26,1.26,0,0,1-.45.85,1.27,1.27,0,0,1-.79.28Zm150.21-.08a1.24,1.24,0,0,1-1.24-1.12,1.23,1.23,0,0,1,.27-.92c1.28-1.59,2.53-3.26,3.71-4.94a1.14,1.14,0,0,1,.35-.34,1.08,1.08,0,0,1,.45-.17,1.15,1.15,0,0,1,.49,0,1.3,1.3,0,0,1,.45.2,1.26,1.26,0,0,1,.51.81,1.27,1.27,0,0,1-.21.93c-1.22,1.74-2.5,3.44-3.81,5.08a1.34,1.34,0,0,1-.44.34,1.21,1.21,0,0,1-.53.12Zm-159.3-13.4a1.3,1.3,0,0,1-.64-.17,1.2,1.2,0,0,1-.45-.47c-1-1.83-2-3.73-2.92-5.63a1.26,1.26,0,0,1,.59-1.67,1.31,1.31,0,0,1,.47-.12,1.25,1.25,0,0,1,.9.32,1.24,1.24,0,0,1,.29.39c.89,1.85,1.84,3.69,2.84,5.48a1.26,1.26,0,0,1,.12.95,1.28,1.28,0,0,1-.59.76,1.21,1.21,0,0,1-.61.16ZM210.7,147a1.27,1.27,0,0,1-.63-.17,1.21,1.21,0,0,1-.45-.45,1.23,1.23,0,0,1-.17-.62,1.15,1.15,0,0,1,.16-.62c1-1.79,1.95-3.64,2.83-5.5a1.24,1.24,0,0,1,.29-.39,1.2,1.2,0,0,1,.42-.25,1.15,1.15,0,0,1,.48-.07,1.31,1.31,0,0,1,.48.12,1.28,1.28,0,0,1,.59,1.67c-.91,1.9-1.89,3.8-2.92,5.64a1.22,1.22,0,0,1-.46.47,1.27,1.27,0,0,1-.63.17ZM35.58,132.24a1.26,1.26,0,0,1-.72-.23,1.17,1.17,0,0,1-.45-.6c-.7-2-1.36-4-1.94-6a1.63,1.63,0,0,1,0-.49,1.25,1.25,0,0,1,.15-.46,1.3,1.3,0,0,1,.32-.38,1.25,1.25,0,0,1,.43-.22,1.3,1.3,0,0,1,.48,0,1.26,1.26,0,0,1,.84.46,1.22,1.22,0,0,1,.22.44c.57,2,1.2,4,1.89,5.89a1.25,1.25,0,0,1,0,1,1.23,1.23,0,0,1-.71.65,1.16,1.16,0,0,1-.42.07Zm181.82-.11a1.26,1.26,0,0,1-.57-.14,1.3,1.3,0,0,1-.45-.39,1.2,1.2,0,0,1-.15-1.14c.68-1.94,1.31-3.92,1.87-5.89a1.21,1.21,0,0,1,.21-.46,1.17,1.17,0,0,1,.85-.51,1.29,1.29,0,0,1,1,.27,1.34,1.34,0,0,1,.32.39,1.44,1.44,0,0,1,.14.49,1.21,1.21,0,0,1-.07.5c-.57,2-1.22,4.07-1.92,6.05a1.3,1.3,0,0,1-.46.6,1.23,1.23,0,0,1-.71.23Zm-186-15.63a1.31,1.31,0,0,1-.8-.29,1.29,1.29,0,0,1-.42-.75c-.37-2.08-.67-4.2-.9-6.28a1.37,1.37,0,0,1,.05-.49,1.26,1.26,0,0,1,.22-.43A1.39,1.39,0,0,1,30,108a1.29,1.29,0,0,1,.47-.15,1.54,1.54,0,0,1,.48,0,1.34,1.34,0,0,1,.75.6,1.24,1.24,0,0,1,.15.47c.22,2,.51,4.1.87,6.12a1.31,1.31,0,0,1-.21.94,1.22,1.22,0,0,1-.81.51.78.78,0,0,1-.22,0Zm190.11-.11-.22,0a1.26,1.26,0,0,1-1-1.45c.36-2,.65-4.1.86-6.13a1.25,1.25,0,0,1,2.22-.65,1.27,1.27,0,0,1,.27.92c-.23,2.08-.53,4.2-.89,6.29a1.25,1.25,0,0,1-1.23,1ZM30,100.29a1.3,1.3,0,0,1-.89-.37,1.25,1.25,0,0,1-.36-.88v-.72c0-1.88.05-3.77.16-5.63a1.2,1.2,0,0,1,.41-.86,1.24,1.24,0,0,1,.9-.31,1.28,1.28,0,0,1,.86.41,1.25,1.25,0,0,1,.32.9c-.1,1.82-.16,3.66-.16,5.49V99a1.36,1.36,0,0,1-.09.48,1.09,1.09,0,0,1-.27.4,1.26,1.26,0,0,1-.4.28,1.33,1.33,0,0,1-.48.1Zm193-.12h0a1.29,1.29,0,0,1-.48-.1,1.26,1.26,0,0,1-.4-.28,1.09,1.09,0,0,1-.27-.4,1.36,1.36,0,0,1-.09-.48v-.59c0-1.86-.06-3.75-.16-5.6a1.35,1.35,0,0,1,.06-.49,1.38,1.38,0,0,1,.25-.42,1.45,1.45,0,0,1,.39-.3,1.31,1.31,0,0,1,.47-.12,1.27,1.27,0,0,1,1.32,1.18c.11,1.91.16,3.84.16,5.74v.6a1.28,1.28,0,0,1-.09.48,1.22,1.22,0,0,1-.68.68,1.1,1.1,0,0,1-.47.1ZM31.21,84.05H31a1.41,1.41,0,0,1-.46-.17,1.29,1.29,0,0,1-.36-.34,1,1,0,0,1-.2-.44,1.16,1.16,0,0,1,0-.49c.33-2.08.74-4.18,1.2-6.23a1.3,1.3,0,0,1,.2-.45,1.23,1.23,0,0,1,.35-.33,1.12,1.12,0,0,1,.46-.17,1.16,1.16,0,0,1,.49,0,1.25,1.25,0,0,1,.44.2,1.1,1.1,0,0,1,.33.35,1.18,1.18,0,0,1,.16.94c-.45,2-.85,4-1.17,6.08a1.29,1.29,0,0,1-.42.75,1.24,1.24,0,0,1-.8.3Zm190.52-.12a1.25,1.25,0,0,1-1.23-1.05c-.33-2-.73-4.07-1.18-6.07a1.16,1.16,0,0,1,0-.49,1.12,1.12,0,0,1,.17-.46,1.26,1.26,0,0,1,.33-.36,1.51,1.51,0,0,1,.45-.2,1.16,1.16,0,0,1,.49,0,1.12,1.12,0,0,1,.46.17,1.14,1.14,0,0,1,.35.34,1.22,1.22,0,0,1,.2.45c.47,2.06.88,4.15,1.21,6.23a1.28,1.28,0,0,1-.22.93,1.26,1.26,0,0,1-.81.51.69.69,0,0,1-.2,0ZM35.11,68.25a1.39,1.39,0,0,1-.4-.06,1.27,1.27,0,0,1-.77-1.6c.68-2,1.43-4,2.23-6a1.45,1.45,0,0,1,.26-.43,1.37,1.37,0,0,1,.42-.29,1.31,1.31,0,0,1,1,0,1.37,1.37,0,0,1,.42.29,1.32,1.32,0,0,1,.27.42,1.42,1.42,0,0,1,.08.5,1.19,1.19,0,0,1-.13.49c-.78,1.89-1.51,3.83-2.18,5.79a1.27,1.27,0,0,1-.45.62A1.24,1.24,0,0,1,35.11,68.25Zm182.68-.11a1.18,1.18,0,0,1-.72-.24,1.28,1.28,0,0,1-.46-.61c-.66-2-1.39-3.89-2.17-5.78a1.31,1.31,0,0,1-.12-.48,1.37,1.37,0,0,1,.09-.49,1.17,1.17,0,0,1,.27-.42,1.2,1.2,0,0,1,.41-.28,1.33,1.33,0,0,1,.48-.1,1.17,1.17,0,0,1,.49.11,1.25,1.25,0,0,1,.41.28,1.17,1.17,0,0,1,.27.42c.8,1.94,1.55,3.93,2.23,5.93a1.21,1.21,0,0,1-.06,1,1.24,1.24,0,0,1-.71.64,1.4,1.4,0,0,1-.4.07ZM41.62,53.33a1.2,1.2,0,0,1-.59-.15,1.25,1.25,0,0,1-.6-.75,1.21,1.21,0,0,1,.1-1c1-1.86,2.08-3.7,3.2-5.49a1.1,1.1,0,0,1,.33-.35,1.13,1.13,0,0,1,.45-.2,1.16,1.16,0,0,1,.49,0,1.3,1.3,0,0,1,.46.18,1.14,1.14,0,0,1,.35.34,1.21,1.21,0,0,1,.21.93,1.23,1.23,0,0,1-.18.46c-1.09,1.74-2.14,3.53-3.12,5.34a1.12,1.12,0,0,1-.46.48,1.19,1.19,0,0,1-.64.18Zm169.66-.09a1.18,1.18,0,0,1-.64-.17,1.32,1.32,0,0,1-.46-.48c-1-1.8-2-3.59-3.12-5.33a1.31,1.31,0,0,1-.16-.95,1.25,1.25,0,0,1,.55-.78,1.3,1.3,0,0,1,.46-.18,1.11,1.11,0,0,1,.48,0,1.2,1.2,0,0,1,.45.19,1.26,1.26,0,0,1,.33.36c1.12,1.78,2.2,3.62,3.2,5.47a1.21,1.21,0,0,1,.1,1,1.25,1.25,0,0,1-.6.75,1.2,1.2,0,0,1-.59.15ZM50.53,39.72a1.26,1.26,0,0,1-.77-.27,1.28,1.28,0,0,1-.47-.84,1.22,1.22,0,0,1,.26-.92c1.29-1.66,2.66-3.3,4.06-4.87a1.33,1.33,0,0,1,.38-.29,1.15,1.15,0,0,1,.48-.13,1.33,1.33,0,0,1,.48.07,1.38,1.38,0,0,1,.42.25,1.3,1.3,0,0,1,.41.87,1.24,1.24,0,0,1-.31.9c-1.37,1.54-2.7,3.13-4,4.75a1.24,1.24,0,0,1-.44.35,1.26,1.26,0,0,1-.54.13Zm151.84-.07a1.3,1.3,0,0,1-.55-.12,1.36,1.36,0,0,1-.43-.36c-1.26-1.61-2.59-3.2-4-4.73a1.27,1.27,0,0,1-.31-.91,1.24,1.24,0,0,1,.41-.87,1.27,1.27,0,0,1,.42-.25,1.29,1.29,0,0,1,.48-.06,1.21,1.21,0,0,1,.47.12,1.24,1.24,0,0,1,.39.29c1.4,1.58,2.77,3.21,4.06,4.87a1.23,1.23,0,0,1,.27.64,1.35,1.35,0,0,1-.12.68,1.19,1.19,0,0,1-.46.51,1.21,1.21,0,0,1-.67.19ZM61.56,27.79a1.26,1.26,0,0,1-.84-2.18c1.55-1.42,3.17-2.8,4.81-4.12a1.26,1.26,0,0,1,.43-.22,1.17,1.17,0,0,1,.49,0,1.07,1.07,0,0,1,.46.14,1.14,1.14,0,0,1,.37.32,1.23,1.23,0,0,1,.27.92,1.28,1.28,0,0,1-.47.84c-1.6,1.29-3.17,2.64-4.68,4a1.24,1.24,0,0,1-.84.32Zm129.77-.05a1.25,1.25,0,0,1-.84-.33c-1.52-1.38-3.1-2.73-4.69-4a1.27,1.27,0,0,1-.46-.84,1.22,1.22,0,0,1,.26-.92,1.26,1.26,0,0,1,.37-.32,1.25,1.25,0,0,1,.95-.11,1.24,1.24,0,0,1,.44.23c1.63,1.31,3.25,2.7,4.81,4.11a1.28,1.28,0,0,1,.08,1.78,1.28,1.28,0,0,1-.92.41ZM74.42,17.88a1.28,1.28,0,0,1-.76-.25,1.3,1.3,0,0,1-.45-.65,1.37,1.37,0,0,1,0-.8,1.3,1.3,0,0,1,.5-.61c1.77-1.14,3.6-2.24,5.42-3.26a1.24,1.24,0,0,1,.47-.15,1.3,1.3,0,0,1,.48,0,1.42,1.42,0,0,1,.44.23,1.23,1.23,0,0,1,.31.37,1.24,1.24,0,0,1-.49,1.7c-1.77,1-3.55,2.06-5.28,3.17a1.16,1.16,0,0,1-.67.21Zm104-.05a1.25,1.25,0,0,1-.67-.2c-1.73-1.11-3.51-2.18-5.29-3.17a1.25,1.25,0,0,1-.6-.75,1.21,1.21,0,0,1,.1-1,1.25,1.25,0,0,1,.75-.6,1.24,1.24,0,0,1,1,.1c1.82,1,3.65,2.11,5.43,3.26a1.25,1.25,0,0,1,.37,1.73,1.21,1.21,0,0,1-1,.58ZM88.73,10.27a1.25,1.25,0,0,1-1.15-.77,1.25,1.25,0,0,1,0-.95,1.23,1.23,0,0,1,.67-.69c1.92-.82,3.9-1.59,5.88-2.29a1.12,1.12,0,0,1,.48-.07,1.31,1.31,0,0,1,.47.12,1.24,1.24,0,0,1,.39.29,1.51,1.51,0,0,1,.25.42,1.28,1.28,0,0,1,0,1,1.26,1.26,0,0,1-.72.64c-1.93.69-3.86,1.44-5.73,2.24a1.33,1.33,0,0,1-.48.1Zm75.4,0a1.12,1.12,0,0,1-.48-.1c-1.89-.8-3.82-1.55-5.76-2.23a1.29,1.29,0,0,1-.72-.64,1.28,1.28,0,0,1,0-1,1.29,1.29,0,0,1,.64-.72,1.28,1.28,0,0,1,1,0c2,.7,4,1.47,5.9,2.29a1.27,1.27,0,0,1,.62.57,1.25,1.25,0,0,1,.11.83,1.26,1.26,0,0,1-1.22,1Zm-60-5a1.35,1.35,0,0,1-.84-.32,1.3,1.3,0,0,1-.41-.79,1.33,1.33,0,0,1,.22-.87,1.27,1.27,0,0,1,.74-.5c2-.48,4.11-.91,6.19-1.26a1.25,1.25,0,0,1,1.43,1,1.24,1.24,0,0,1-.21.93,1.26,1.26,0,0,1-.8.51c-2,.34-4.05.76-6,1.23a1.35,1.35,0,0,1-.28,0Zm44.62,0a1,1,0,0,1-.29,0c-2-.47-4-.88-6-1.22a1.28,1.28,0,0,1-.8-.52,1.25,1.25,0,0,1-.2-.92,1.28,1.28,0,0,1,.49-.81,1.32,1.32,0,0,1,.92-.23c2.08.36,4.16.78,6.19,1.26a1.27,1.27,0,0,1,.74.5A1.25,1.25,0,0,1,150,4a1.23,1.23,0,0,1-.4.79,1.27,1.27,0,0,1-.83.33Zm-28.6-2.39a1.22,1.22,0,0,1-.86-.36,1.24,1.24,0,0,1-.38-.85,1.28,1.28,0,0,1,.32-.88,1.25,1.25,0,0,1,.84-.41c2.09-.14,4.21-.21,6.31-.21h.12c2.09,0,4.21.06,6.31.2a1.25,1.25,0,0,1,.86.42,1.27,1.27,0,0,1,.31.91,1.28,1.28,0,0,1-.43.85,1.23,1.23,0,0,1-.9.32c-2-.13-4.11-.2-6.15-.2h-.11c-2.05,0-4.12.07-6.16.2Z" style="fill:#000"/><path d="M180.76,85.73c0-.46,0-.94-.08-1.41v0a1.41,1.41,0,0,1,.08-.39,1.29,1.29,0,0,0,.08-.38,12.61,12.61,0,0,0-2.92-8.29A14.36,14.36,0,0,0,176,73.3l-.12-.1c-.2-.17-.41-.33-.62-.48l-.37-.26-.42-.27c-.2-.13-.41-.25-.62-.36l-.21-.11c-.28-.15-.57-.29-.86-.41l0,0a13.84,13.84,0,0,0-2.06-.69l-.15-.15-1.91-.3a12.8,12.8,0,0,0-2.08-.16H154.13c0-.41,0-.87.08-1.38s.07-1,.07-1.53,0-1-.07-1.54-.08-1-.08-1.53v.15h0v-.61a13,13,0,0,0-1.42-6l0,0a12.67,12.67,0,0,0-4.68-5.45,12.46,12.46,0,0,0-7-2.07H113.92a12.46,12.46,0,0,0-7,2.07,12.67,12.67,0,0,0-4.68,5.45l0,0a12.86,12.86,0,0,0-1.43,6v.61h0V64c0,.51,0,1-.08,1.53s-.07,1-.07,1.54,0,1,.07,1.53.08,1,.08,1.38H88.44a12.8,12.8,0,0,0-2.08.16l-1.91.3-.15.15a13.84,13.84,0,0,0-2.06.69l0,0c-.29.12-.58.26-.86.41l-.21.11c-.21.11-.42.23-.62.36l-.42.27-.37.26c-.21.15-.42.31-.62.48l-.12.1a14.36,14.36,0,0,0-1.91,1.91,12.61,12.61,0,0,0-2.92,8.29,1.29,1.29,0,0,0,.08.38,1.41,1.41,0,0,1,.08.39v0c0,.47-.06,1-.08,1.41,0,1.38-.08,2.78-.08,4.22h.16v46c0,.62,0,1.26.07,1.92a7.61,7.61,0,0,0,.39,1.92,12.8,12.8,0,0,0,4.68,7.29A13.14,13.14,0,0,0,87.82,150h79.36a13.14,13.14,0,0,0,8.36-2.84,12.8,12.8,0,0,0,4.68-7.29,7.61,7.61,0,0,0,.39-1.92c0-.66.07-1.3.07-1.92V90h.16C180.84,88.51,180.81,87.11,180.76,85.73Zm-40.9-25.87a6.49,6.49,0,0,1,2.55.44,3.83,3.83,0,0,1,.44.25A2.54,2.54,0,0,1,144,62.32a31.24,31.24,0,0,1,.08,3.76C144,67.36,144,68.66,144,70H111c0-1.33,0-2.63-.08-3.91a31.24,31.24,0,0,1,.08-3.76,2.54,2.54,0,0,1,1.15-1.77,1.83,3.83,0,0,1,.44-.25,6.49,6.49,0,0,1,2.55-.44Zm31,76a4.24,4.24,0,0,1-1,3.22,4.75,4.75,0,0,1-3.3.92H88.44a4.75,4.75,0,0,1-3.3-.92,4.24,4.24,0,0,1-1-3.22V113.43h30.08v3.38h0V117a6.3,6.3,0,0,0,6.3,6.29h14a6.3,6.3,0,0,0,6.3-6.29v-.15h0v-3.38h30.08Zm0-32.54H84.14V84.57c0-1.84.33-3.07,1-3.68a5.36,5.36,0,0,1,3.6-.92h77.52a5.36,5.36,0,0,1,3.6.92c.67.61,1,1.84,1,3.68Z" style="fill:#cc0000"/><path d="M100,166.94a19.05,19.05,0,1,1,13.46-5.58A19.1,19.1,0,0,1,183,166.94Z" style="fill:#f44336"/><path d="M183,1.29a15.64,15.64,0,1,0,11,4.58,15.56,15.56,0,0,0-11-4.58Z" style="fill:#fff"/><path d="M190.17,152.62l-4.71-4.72,4.71-4.71a1.73,1.73,0,0,0,0-2.43,1.72,1.72,0,0,0-1.21-.5,1.7,1.7,0,0,0-1.21.5L183,145.48l-4.71-4.72a1.7,1.7,0,0,0-1.21-.5,1.72,1.72,0,0,0-1.21.5,1.73,1.73,0,0,0,0,2.43l4.71,4.71-4.72,4.72a1.69,1.69,0,0,0-.47.87,1.75,1.75,0,0,0,.1,1,1.71,1.71,0,0,0,1.58,1.06,1.65,1.65,0,0,0,.66-.13,1.76,1.76,0,0,0,.56-.37l4.71-4.72,4.72,4.72a1.57,1.57,0,0,0,.55.37,1.65,1.65,0,0,0,.66.13h0a1.69,1.69,0,0,0,.95-.29,1.68,1.68,0,0,0,.73-1.76A1.62,1.62,0,0,0,190.17,152.62Z" style="fill:#f44336"/></svg>